/* XPM */
static char *result[] = {
/* columns rows colors chars-per-pixel */
"64 64 21 1 ",
"  c #1B1611",
". c #211C15",
"X c #241F1A",
"o c #28231D",
"O c #362922",
"+ c #312B24",
"@ c #5C1B09",
"# c #6E1B04",
"$ c #5A281A",
"% c #71220C",
"& c #452922",
"* c #42322A",
"= c #55332A",
"- c #433E37",
"; c #6E3120",
": c #683F34",
"> c #872105",
", c #884431",
"< c #9C4832",
"1 c #AD6856",
"2 c None",
/* pixels */
"2222222222222222222222222222222222222222222222222222222222222222",
"2222222222222222222222222222222222222222222222222222222222222222",
"2222222222222222222222222222222222222222222222222222222222222222",
"2222222222222222222222222222222222222222222222222222222222222222",
"2222222222222222222222222222222222222222222222222222222222222222",
"2222222222222222222222222222222222222222222222222222222222222222",
"2222222222222222222222222222222222222222222222222222222222222222",
"2222222222222222222222222222222222222222222222222222222222222222",
"2222222222222222222222222222222222222222222222222222222222222222",
"2222222222222222222222222222222222222222222222222222222222222222",
"2222222222222222222222222222222222222222222222222222222222222222",
"2222222222222222222222222222222222222222222222222222222222222222",
"2222222222222222222222222222222222222222222222222222222222222222",
"2222222222222222222222222222222222222222222222222222222222222222",
"2222222222222222222222222222222222222222222222222222222222222222",
"2222222222222222222222222222222222222222222222222222222222222222",
"2222222222222222222222222222222222222222222222222222222222222222",
"2222222222222222222222222222222222222222222222222222222222222222",
"2222222222222222222222222222222222222222222222222222222222222222",
"2222222222222222222222222222222222222222222222222222222222222222",
"2222222222222222222222222222222222222222222222222222222222222222",
"2222222222222222222222222222222222222222222222222222222222222222",
"2222222222222222222222222222222222222222222222222222222222222222",
"2222222222222222222222222222222222222222222222222222222222222222",
"2222222222222222222222222222222222222222222222222222222222222222",
"2222222222222222222222222222222222222222222222222222222222222222",
"2222222222222222222222222222222222222222222222222222222222222222",
"2222222222222222222222222222222222222222222222222222222222222222",
"2222222222222222222222222222222222222222222222222222222222222222",
"222222222222222222222222222.2222.2222222222222222222222222222222",
"2222222222222222222222222222222222222222222222222222222222222222",
"2222222222222222222222222222----22222222222222222222222222222222",
"222222222222222222222222222--++++2222222222222222222222222222222",
"222222222222222222222222222-+++++2222222222222222222222222222222",
"222222222222222222222222222o++++o2222222222222222222222222222222",
"222222222222222222222222222oooooo2222222222222222222222222222222",
"2222222222222222222222222222XXXX22222222222222222222222222222222",
"22222222222222222222222222oooooooo222222222222222222222222222222",
"222222222222222222222222ooo++++++ooo2222222222222222222222222222",
"2222222222222222222...  ++++++++++++o  ...2222222222222222222222",
"222222222222222222 ... ++--++++++++++o ... 222222222222222222222",
"22222222222222222  2222+--++++++++++++2222  22222222222222222222",
"22222222222222222 2222++-+++++++++++++22222 22222222222222222222",
"2222222222222222222222+--+++++++++++++22222222222222222222222222",
"2222222222222222222.. +-++++++++++++++  ..2222222222222222222222",
"222222222222222222 .. +++++++++++++++++ .. 222222222222222222222",
"22222222222222222  222+++++++++++++++++222  22222222222222222222",
"22222222222222222 2222+++++++++++++++++2222 22222222222222222222",
"2222222222222222222222o+++++*****+++++o2222222222222222222222222",
"22222222222222222222. o++***********++o .22222222222222222222222",
"2222222222222222222 . o+***:::::::***+o . 2222222222222222222222",
"222222222222222222  22o**::;;;;;;;::**o22  222222222222222222222",
"222222222222222222 222OO:;;;;;;;;;;;:*O222 222222222222222222222",
"22222222222222222222222&$;%%%%%%%%%;;=22222222222222222222222222",
"22222222222222222222222$$%%>>>>>>>%%$$22222222222222222222222222",
"22222222222222222222222@@@##><1<>>>@@@22222222222222222222222222",
"2222222222222222222222222#####,######222222222222222222222222222",
"2222222222222222222222222222######222222222222222222222222222222",
"2222222222222222222222222222222222222222222222222222222222222222",
"2222222222222222222222222222222222222222222222222222222222222222",
"2222222222222222222222222222222222222222222222222222222222222222",
"2222222222222222222222222222222222222222222222222222222222222222",
"2222222222222222222222222222222222222222222222222222222222222222",
"2222222222222222222222222222222222222222222222222222222222222222"
};
