/* XPM */
static char *_4cd75b9d7b3498dae54a713f6dd56dacuWty55Y2fqpDDnL[] = {
/* columns rows colors chars-per-pixel */
"64 64 12 1 ",
"  c #2B2524",
". c #312B24",
"X c #42322A",
"o c #683F34",
"O c #70573B",
"+ c #8A7452",
"@ c #8E7961",
"# c #B3A603",
"$ c #9A815C",
"% c #A48D6C",
"& c #AD987A",
"* c #C7C27D",
/* pixels */
"&&&&&&%O&&&&&&&&&&&&&&&&&&&&&&&&&&&&&&&O&&&&&&&&&&&&&&&&&&&&&&&&",
"$$$$%O$O&O%$$$$$$$$$$$$$$$$$$$$$$$$$%O$O&O%$$$$$$$$$$$$$$$$$$$$$",
"$$$$$%+O&%$$$$$$$$$$$$$$$$$$$$$$$$$$$%+O&%$$$$$$$$$$$$$$$$$$$$$$",
"$$$$$$+O&$$$$$$$$$$$$$$$$$$$$$$$$$$$$$+O&$$$$$$$$$$$$$$$$$$$$$$$",
"$$$$$++O&+$$$$$$$$$$$$$$$$$$$$$$$$$$$++O&+$$$$$$$$$$$$$$$$$$$$$$",
"$$$$+O+O&O+$$$$$$$$$$$$$$$$$$$ $$$$$+O+O&O+$$$$$$$$$$$$$$$$$$$$$",
"+++++++O&++++++++++++++++++++  ++++++++O%+++++++++++++++ +++++++",
"OOOOOOOOOOOOOOOOOOOOOOOOOOOO  ooOOOOOOOOOOOOOOOOOOOOOOOo OOOOOOO",
"&&&&&&&&&&&&&&&&&&&&&&%O&&&&  $oo&&&&&&&&&&&&&&&&&&&&&oo &&&&&&&",
"$$$$$$$$$$$$$$$$$$$$%O$O&O%$ X$ooo$$$$$$$$$$$$$$$$$$ooo$ O%$$$$$",
"$$$$$$$$$$$$$$$$$$$$$%+O&%$$ X$ooooo$$$$$$$$$$$$$$$ooo$  %$$$$$$",
"$$$$$$$$$$$$$$$$$$$$$$+O&$$$$XX$$ooooo$XXXXXXX$oooooo$  X$$$$$$$",
"$$$$$$$$$$$$$$$$$$$$$++O&+$$$$XXX$ooo$XXXXXXXXX$oooo$XXX&+$$$$$$",
"$$$$$$$$$$$$$$$$$$$$+O+O&O+$$$$ XXXXXXXXXXXXXXXXX$$$XXXO&O+$$$$$",
"+++++++++++++++++++++++O%+++++o$  XXXXXXXXXXXXXXXXXXX +O%+++++++",
"OOOOOOOOOOOOOOOOOOOOOOOOOOOOOoo$o# XXXXXXXXXXXXXXXX  oOOOOOOOOOO",
"&&&&&&%O&&&&&&&&&&&&&&&&&&&&&o$oo*# XXXXXXXXXXXXXX o$o&&&&&&&&&&",
"$$$$%O$O&O%$$$$$$$$$$$$$$$$$$o$oo*#  XXXXXXXXXXX  #o$oo$$$$$$$$$",
"$$$$$%+O&%$$$$$$$$$$$$$$$$$$$o$oo**.# XXXXXXX    ##oo$o$$$$$$$$$",
"$$$$$$+O&$$$$$$$$$$$$$$$$$$$$o$ooo***o XXXXX o**.##oo$o$$$$$$$$$",
"$$$$$++O&+$$$$$$$$$$$$$$$$$$.o$ooooooX       Xo***oo$oo$$$$$$$$$",
"$$$$+O+O&O+$$$$$$$$$$$$$$$...o$oooooXXX.   .XXXooooo$o$$$$$$$$$$",
"+++++++O%++++++++++++++++....oo$ooooXXXX...XXXXXooo$oo++++++++++",
"OOOOOOOOOOOOOOOOOOOOOOOO......oo$ooXXXXX...XXXXXXo$ooOOOOOOOOOOO",
"&&&&&&&&&&&&&&&&&&&&&&%........ooXXXXXXXX.XXXXXXXXoo&&%O&&&&&&&&",
"$$$$$$$$$$$$$$$$$$$$%O..........oooXXXXXXXXXXXXoooo.%O$O&O%$$$$$",
"$$$$$$$$$$$$$$$$$$$$$o............oooXXXXXXXXooo.@@..%+O&%$$$$$$",
"$$$$$$$$$$$$$$$$$$$$oo..............oooooooooo..X@@...+O&$$$$$$$",
"$$$$$$$$$$$$$$$$$$$oX................o@@..XX.X.X.@@o...O&+$$$$$$",
"$$$$$$$$$$$$$$$$$$$oXX...XX..........oo@@XX.X.XX@@oo...O&O+$$$$$",
"++++++++++++++++++ooX.XXX.XX...XX...oooo@@XX.XX@@ooo...O%+++++++",
"OOOOOOOOOOOOOOOOOoo.XXX.XXX.X.X.X..o@oooo@@XXX@@oooo...OOOOOOOOO",
"&&&&&&%O&&&&&&&&oXXXX.XXX.XXXXXX.Xo@@ooooo@@X@@ooooo...&&&&&&&&&",
"$$$$%O$O&O%$$$$@XXX.XXX.XXXoX.X.X.o@ooooooo@@@oooooo...$$$$$$$$$",
"$$$$$%+O&%$$$$@XXoXXXXXX.XXoXoXoX@o@oooooooo@ooooooo...$$$$$$$$$",
"$$$$$$+O&$$$$@oXoXoXXXXXXoXooXoXoo@@oooooooooooooooo...$$$$$$$$$",
"$$$$$++O&+$$@ooXXXXoXXoXoXoooXXo@o@ooooooooooooooooo..X$$$$$$$$$",
"$$$$+O+O&O+$ooXoXoXXoXXoXXooooXoo@@ooooooooooooooooo..X$$$$$$$$$",
"+++++++O%++@ooXXoXXoXooXoXoooX@o@@o.oooooooooooooo.o..X+++++++++",
"OOOOOOOOOO@ooXoXXooXXXoXXoo@ooo@@@.o.oo.ooo.o.ooooo..XXOOOOOOOOO",
"&&&&&&&&&@oooXXoXoXoXoXXo@o@o@o@@oo.oo.oo.oo.o.o.o..XX%O&&&&&&&&",
"$$$$$$$$$oooXoXXXoXXoXoooo@@oo@@o.oo.ooo.oo.o.ooo..XXO$O&O%$$$$$",
"$$$$$$$$@oooXXoXooXoXo@o@@@@@@@.oo..o.o.o.oo.o.o..XXX%+O&%$$$$$$",
"$$$$$$$$@ooXooXoooXXoo@@@@.@@@.o.o.o...o.o..o.o...XX$$+O&$$$$$$$",
"$$$$$$$@ooooXXoo@oooo@@@@..@...oo.o...o.o...o....XXX$++O&+$$$$$$",
"$$$$$$@ooooXooo@@oooo@@@........................XXo$+O+O&O+$$$$$",
"++++++@o@oo@o@o@@o@o@@@........................XXo+++++O%+++++++",
"OOOOOO@@o@ooo@@@@@@@@.........................XXoOOOOOOOOOOOOOOO",
"&&&&&&@@@@@@@@..@@@@.........................Xoo&&&&&&&&&&&&&&&&",
"$$$$%O@@@@@@X....@..........................ooo$$$$$$$$$$$$$$$$$",
"$$$$$%@@@@XXXX............................ooo$$$$$$$$$$$$$$$$$$$",
"$$$$$$+@@$$$$$$$........................oo$$$$$$$$$$$$$$$$$$$$$$",
"$$$$$++O&+$$$$$$$....................++O&+$$$$$$$$$$$$$$$$$$$$$$",
"$$$$+O+O&O+$$$$$$$$$.............$$$+O+O&O+$$$$$$$$$$$$$$$$$$$$$",
"+++++++O%++++++++++++++++++++++++++++++O%+++++++++++++++++++++++",
"OOOOOOOOOOOOOOOOOOOOOOOOOOOOOOOOOOOOOOOOOOOOOOOOOOOOOOOOOOOOOOOO",
"&&&&&&&&&&&&&&&&&&&&&&%O&&&&&&&&&&&&&&&&&&&&&&&&&&&&&&%O&&&&&&&&",
"$$$$$$$$$$$$$$$$$$$$%O$O&O%$$$$$$$$$$$$$$$$$$$$$$$$$%O$O&O%$$$$$",
"$$$$$$$$$$$$$$$$$$$$$%+O&%$$$$$$$$$$$$$$$$$$$$$$$$$$$%+O&%$$$$$$",
"$$$$$$$$$$$$$$$$$$$$$$+O&$$$$$$$$$$$$$$$$$$$$$$$$$$$$$+O&$$$$$$$",
"$$$$$$$$$$$$$$$$$$$$$++O&+$$$$$$$$$$$$$$$$$$$$$$$$$$$++O&+$$$$$$",
"$$$$$$$$$$$$$$$$$$$$+O+O&O+$$$$$$$$$$$$$$$$$$$$$$$$$+O+O&O+$$$$$",
"+++++++++++++++++++++++O%++++++++++++++++++++++++++++++O%+++++++",
"OOOOOOOOOOOOOOOOOOOOOOOOOOOOOOOOOOOOOOOOOOOOOOOOOOOOOOOOOOOOOOOO"
};
