/* XPM */
static char *result[] = {
/* columns rows colors chars-per-pixel */
"64 64 26 1 ",
"  c #191212",
". c #2B2524",
"X c #41322F",
"o c #403936",
"O c #443F3D",
"+ c #48403C",
"@ c #70573B",
"# c #733547",
"$ c #4A4544",
"% c #514843",
"& c #5B504B",
"* c #5D504E",
"= c #6B615D",
"- c #736A66",
"; c #746E68",
": c #8D4F57",
"> c #8A7452",
", c #875362",
"< c #9E6970",
"1 c #A7716F",
"2 c #9A815C",
"3 c #A48D6C",
"4 c #AD987A",
"5 c #B48684",
"6 c #A69C94",
"7 c #BFB8AC",
/* pixels */
"4444443@4444444444444444444444444444444@444444444444444444444444",
"22223@2@4@322222222222222222222222223@2@4@3222222222222222222222",
"222223>@432222222222222222222222222223>@432222222222222222222222",
"222222>@422222222222222222222222222222>@422222222222222222222222",
"22222>>@4>222222222222222222222222222>>@4>2222222222222222222222",
"2222>@>@4@>2222222222222222222222222>@>@4@>222222222222222222222",
">>>>>>>@4>>>>>>>>>>>>>>>>>>>>>>>>>>>>>>@3>>>>>>>>>>>>>>>>>>>>>>>",
"@@@@@@@@@@@@@@@@@@@@@@@@@@@@@@@@@@@@@@@@@@@@@@@@@@@@@@@@@@@@@@@@",
"44444444444444444444443@4444444444444444444444444444443@44444444",
"222222222222222222223@2@4@322222222222222222222222223@2@4@322222",
"2222222222222222222223>@432222222222222222222222222223>@43222222",
"2222222222222222222222>@422222222222222222222222222222>@42222222",
"222222222222222222222>>@4>222222222222222222222222222>>@4>222222",
"22222222222222222222>@>@4@>2222222222222222222222222>@>@4@>22222",
">>>>>>>>>>>>>>>>>>>>>>>@3>>>>>>>>>>>>>>>>>>>>>>>>>>>>>>@3>>>>>>>",
"@@@@@@@@@@@@@@@@@@@@@@@@@@@@@@@@@@@@@@@@@@@@@@@@@@@@@@@@@@@@@@@@",
"4444443@4444444444444444444444444444443@444444444444444444444444",
"22223@2@4@322222222222222222222222223@2@4@3222222222222222222222",
"222223>@432222222222222222222222222223>@432222222222222222222222",
"222222>@422222222222222222222222222222>@422222222222222222222222",
"22222>>@4>222222222222222222222222222>>@4>2222222222222222222222",
"2222>@>@4@>2222222222222222222222222>@>@4@>222222222222222222222",
">>>>>>>@3>>>>>>>>>>>>>>>>>1>>>>>>>>>>>>@3>>>>>>>>>>>>>>>>>>>>>>>",
"@@@@@@@@@@@@@@@@@@@@@@@@@777.@@@@@@@@@@@@@@@@@@@@@@@@@@@@@@@@@@@",
"44444444444444444444443@.7&6774$OO444444444444444444443@44444444",
"222222222222222222223O$776&&&&   .2222222222222222223@2@4@322222",
"22222222222222222222$.  &&&&&&&&  22222222222222222223>@43222222",
"22222222222222222222   -&XXXXX&&&-22222222222222222222>@42222222",
"222222222222222222222 *XXX&&&&&&XX*222222222222222222>>@4>222222",
"22222222222222222222>*X&&&&&&&&&&&X*2222222222222222>@>@4@>22222",
">>>>>>>>>>>>>>>>>>>>>;&&&&&=%=&&&&&;>>>>>>>>>>>>>>>>>>>@3>>>>>>>",
"@@@@@@@@@@@@@@@@@@@@;&&&&=&%=%=&&&&&;@@@@@@@@@@@@@@@@@@@@@@@@@@@",
"4444443@444444444444;&&&&%=%=&%&&&&&&;3@444444444444444444444444",
"22223@2@4@3222222222;&=%=&%&&&&&&&&&&&;@4@3222222222222222222222",
"222223>@43222222222;&&%=%&&&&&&&%=%=&&&;432222222222222222222222",
"222222>@42222222222&&&&%&&&&&&&&&%=%=&&;422222222222222222222222",
"22222>>@4>222222222&&&&&&&%=%=&&&&&&%=&&+>2222222222222222222222",
"2222>@>@4@>2222222+&&&&&&&&%=%&&&&&&&%&&+@>222222222222222222222",
">>>>>>>@3>>>>>>>>>++&&&&&&&&&&&&&&&&&&&+o>>>>>>>>>>>>>>>>>>>>>>>",
"@@@@@@@@@@@@@@@@@@o+&&&&&&&&&&&&&&&&&&+oo@@@@@@@@@@@@@@@@@@@@@@@",
"444444444444444444oo+&&&&&&&&&&&&&&&&&+oo44444444444443@44444444",
"222222222222222222oo+&&&&&&&&&&&&&&&&+ooo222222222223@2@4@322222",
"222222222222222222ooo++&&&&&&&&&&&&&+ooo22222222222223>@43222222",
"222222222222222222ooooo+&&&&&&&&&+++ooo222222222222222>@42222222",
"22222222222222222222oooo++++&&+++oooo2222222222222222>>@4>222222",
"22222222222222222222>ooooooo&&ooo2222222222222222222>@>@4@>22222",
">>>>>>>>>>>>>>>>>>>>>>>@3>:##,>>>>>>>555<>>>>>>>>>>>>>>@3>>>>>>>",
"@@@@@@@@@@@@@@@@@@@@@@@@@@:111<@@@@@<511:55@@@@@@@@@@@@@@@@@@@@@",
"4444443@444444444444444444411:5544455::#:11<44444444444444444444",
"22223@2@4@322222222222222222:111<5<51#2@4:#152222222222222222222",
"222223>@4322222222222222222222:1:11::3>@432:1<222222222222222222",
"222222>@42222222222222222222222:11:122>@4222:5222222222222222222",
"22222>>@4>222222222222222222222222222>>@4>2215222222222222222222",
"2222>@>@4@>2222222222222222222222222>@>@4@>2:<222222222222222222",
">>>>>>>@3>>>>>>>>>>>>>>>>>>>>>>>>>>>>>>@3>>>5>>>>>>>>>>>>>>>>>>>",
"@@@@@@@@@@@@@@@@@@@@@@@@@@@@@@@@@@@@@@@@@@55:@@@@@@@@@@@@@@@@@@@",
"44444444444444444444443@444444444444444<55:444444444443@44444444",
"222222222222222222223@2@4@322222222222222222222222223@2@4@322222",
"2222222222222222222223>@432222222222222222222222222223>@43222222",
"2222222222222222222222>@422222222222222222222222222222>@42222222",
"222222222222222222222>>@4>222222222222222222222222222>>@4>222222",
"22222222222222222222>@>@4@>2222222222222222222222222>@>@4@>22222",
">>>>>>>>>>>>>>>>>>>>>>>@3>>>>>>>>>>>>>>>>>>>>>>>>>>>>>>@3>>>>>>>",
"@@@@@@@@@@@@@@@@@@@@@@@@@@@@@@@@@@@@@@@@@@@@@@@@@@@@@@@@@@@@@@@@"
};
