/* XPM */
static char *result[] = {
/* columns rows colors chars-per-pixel */
"64 64 19 1 ",
"  c #231E19",
". c #27221C",
"X c #2C2620",
"o c #312B24",
"O c #554838",
"+ c #5F503F",
"@ c #6A5947",
"# c #72614E",
"$ c #7F6C57",
"% c #49797D",
"& c #8E7961",
"* c #897864",
"= c #A7716F",
"- c #A99A5C",
"; c #928371",
": c #998670",
"> c #9C8F7F",
", c #A3927E",
"< c #AC9C8A",
/* pixels */
"                                                                ",
"................................................................",
"XXXXXXXXXXXXXXXXXXXXXXXXXXXXXXXXXXXXXXXXXXXXXXXXXXXXXXXXXXXXXXXX",
"oooooooooooooooooooooooooooooooooooooooooooooooooooooooooooooooo",
"oooooooooooooooooooooooooooooooooooooooooooooooooooooooooooooooo",
":::::,,,,,,,,,,,,,,,,,,,,,,,<<<<<<<<<<<<,,,,,,,,,,,,,,,,,,,,::::",
"&&&&&&&&&&&&&&&&&&&&&&&&&&&&&&&&&&&&&&&&&&&&&&&&&&&&&&&&&&&&&&&&",
"@@@@@@@@@@@@@@@@@@@@@@@@@@@@@@@@@@@@@@@@@@@@@@@@@@@@@@@@@@@@@@@@",
"%%%%%%%%%=%%%%%%%%%%%%=%%%%%%%%%%%%%%%%%%%%%%%%%%=%%%%%%%%%%%%%%",
"=%%%%%%%=-=%%%%%%%%%%=-=%%%%%%%%%%%%%%%=%%%%%%%%=-=%%%%%%%%%%%%=",
"-=%%%%%%%=%%%%%%%%%%%%=%%%%%%%%%%%%%%%=-=%%%%%%%%=%%%%%%%%%%%%=-",
"=%%%%%%%%%%%%%%%%%%%%%%%%%%%%%%%%%%%%%%=%%%%%%%%%%%%%%%%=%%%%%%=",
"%%%%%%%%%%%%%%%%%%%%%%%%%%%%%%%%%%%%%%%%%%%%%%%%%%%%%%%=-=%%%%%%",
"%%%%%%%%%%%%%%%%=%%%%%%%%%%%%%%%%%%%%%%%%%%%%%%%%%%%%%%%=%%%%%%%",
"%%%%%%%%%%%%%%%=-=%%%%%%%%%%%%%%%%%%%%%%%%%%%%%%%%%%%%%%%%%%%%%%",
"%%%%%%%%%%%%%%%%=%%%%%%%%%=%%%%%%%%%%%%%%%%%%%%%%%%%%%%%%%%%%%%%",
"%%%%%%%%%%%%%%%%%%%%%%%%%=-=%%%%%%%%%%%%%%%%%%%=%%%%%%%%%%%%%%%%",
"%%%%%=%%%%%%%%%%%%%%%%%%%%=%%%%%%%%%%%%%%%%%%%=-=%%%%%%%%%%%%%%%",
"%%%%=-=%%%%%%%%%%%%%%%%%%%%%%%%%%%%=%%%%%%%%%%%=%%%%%%%%%%%%%%%%",
"%%%%%=%%%%%%%%%%%%%%%%%%%%%%%%%%%%=-=%%%%%%%%%%%%%%%%%%%%%%%%%%%",
"%%%%%%%%%%%%%%%%%%%%%%%%%%%%%%%%%%%=%%%%%%%%%%%%%%%%%%%%%%%%%%%%",
"%%%%%%%%%%%%%%%%%%%%%%%%%%%%%%%%%%%%%%%%%%%%%%%%%%%%%%%%%%%%%%%%",
"%%%%%%%%%%%%%%=%%%%%%%%%%%%%%%%%%%%%%%%%%%%%%%%%%%=%%%%%%%%=%%%%",
"%%%%%%%%%%%%%=-=%%%%%%%%%%%%%%%%%%%%%%%%%%%%%%%%%=-=%%%%%%=-=%%%",
"%%%%%%%%%%%%%%=%%%%%%%%%%%%%%%%%%%%%%%%%%%%%%%%%%%=%%%%%%%%=%%%%",
"%%%%%%%%%%%%%%%%%%%%%%%%=%%%%%%%%%%%%%%%%=%%%%%%%%%%%%%%%%%%%%%%",
"=%%%%%%%%%%%%%%%%%%%%%%=-=%%%%%%%%%%%%%%=-=%%%%%%%%%%%%%%%%%%%%%",
"-=%%%%%%%%%%%%%%%%%%%%%%=%%%%%%%%%%%%%%%%=%%%%%%%%%%%%%%%%%%%%%%",
"=%%%%%%%%%%%%%%%%%%%%%%%%%%%%%%%%%%%%%%%%%%%%%%%%%%%%%%%%%%%%%%%",
"%%%%%%%%%%%%%%%%%%%%%%%%%%%%%%%%%%%%%%%%%%%%%%%%%%%%%%%%%%%%%%%%",
"%%%%%%%%%%%%%%%%%%%%%%=%%%%%%%%%%%%%=%%%%%%%%%%%%%%%%%%%%%%%=%%%",
"%%%%%%%%=%%%%%%%%%%%%=-=%%%%%%%%%%%=-=%%%%%%%%%%%=%%%%%%%%%=-=%%",
"%%%%%%%=-=%%%%%%%%%%%%=%%%%%%%%%%%%%=%%%%%%%%%%%=-=%%%%%%%%%=%%%",
"%%%%%%%%=%%%%%%%%%%%%%%%%%%%%%%%%%%%%%%%%%%%%%%%%=%%%%%%%%%%%%%%",
"%%%%%%%%%%%%%%%%%%%%%%%%%%%%%%%%%%%%%%%%%%%%%%%%%%%%%%%%%%%%%%%%",
":::,,,,,,,,,,><<<<<<<<<<<<<<<<<<<<<<<<<<<<<<<<<<<<<,,,,,<,,,,,::",
"&&&&&&&&&&&&&&&&&&&&&&&&&&&&&&&&&&&&&&&&&&&&&&&&&&&&&&&&&&&&&&&&",
"$$$$$$$$$$$$$$$$$$$$$$$$$$$$$$$$$$$$$$$$$$$$$$$$$$$$$$$$$$$$$$$$",
"OOOOOOOOOOOOOOOOOOOOOOOOOOOOOOOOOOOOOOOOOOOOOOOOOOOOOOOOOOOOOOOO",
"*,,<O*,,<O*,,<O*,,<O*,,<O*,,<O*,,<O*,,<O*,,,O*;;;O*,,,O*,,,O*,,O",
"$&&,O$&&,O$&&,O$&&,O$&&,O$&&,O$&&,O$&&,O$&&,O$&&,O$&&,O$&&,O$&,O",
"$&&,O$&&,O$&&,O$&&,O$&&,O$&&,O$&&,O$&&,O$&&,O$&&,O$&&,O$&&,O$&,O",
"$&&,O$&&,O$&&,O$&&,O$&&,O$&&,O$&&,O$&&,O$&&,O$&&,O$&&,O$&&,O$&,O",
"$&&,O$&&,O$&&,O$&&,O$&&,O$&&,O$&&,O$&&,O$&&,O$&&,O$&&,O$&&,O$&,O",
"$&&,O$&&,O$&&,O$&&,O$&&,O$&&,O$&&,O$&&,O$&&,O$&&,O$&&,O$&&,O$&,O",
"$&&,O$&&,O$&&,O$&&,O$&&,O$&&,O$&&,O$&&,O$&&,O$&&,O$&&,O$&&,O$&,O",
"$&&,O$&&,O$&&,O$&&,O$&&,O$&&,O$&&,O$&&,O$&&,O$&&,O$&&,O$&&,O$&,O",
"$&&,O$&&,O$&&,O$&&,O$&&,O$&&,O$&&,O$&&,O$&&,O$&&,O$&&,O$&&,O$&,O",
"$&&,O$&&,O$&&,O$&&,O$&&,O$&&,O$&&,O$&&,O$&&,O$&&,O$&&,O$&&,O$&,O",
"$&&,O$&&,O$&&,O$&&,O$&&,O$&&,O$&&,O$&&,O$&&,O$&&,O$&&,O$&&,O$&,O",
"$&&,O$&&,O$&&,O$&&,O$&&,O$&&,O$&&,O$&&,O$&&,O$&&,O$&&,O$&&,O$&,O",
"$&&,O$&&,O$&&,O$&&,O$&&,O$&&,O$&&,O$&&,O$&&,O$&&,O$&&,O$&&,O$&,O",
"$&&,O$&&,O$&&,O$&&,O$&&,O$&&,O$&&,O$&&,O$&&,O$&&,O$&&,O$&&,O$&,O",
"$&&,O$&&,O$&&,O$&&,O$&&,O$&&,O$&&,O$&&,O$&&,O$&&,O$&&,O$&&,O$&,O",
"$&&,O$&&,O$&&,O$&&,O$&&,O$&&,O$&&,O$&&,O$&&,O$&&,O$&&,O$&&,O$&,O",
"$&&,O$&&,O$&&,O$&&,O$&&,O$&&,O$&&,O$&&,O$&&,O$&&,O$&&,O$&&,O$&,O",
"$&&,O$&&,O$&&,O$&&,O$&&,O$&&,O$&&,O$&&,O$&&,O$&&,O$&&,O$&&,O$&,O",
"$&&,O$&&,O$&&,O$&&,O$&&,O$&&,O$&&,O$&&,O$&&,O$&&,O$&&,O$&&,O$&,O",
"$&&,O$&&,O$&&,O$&&,O$&&,O$&&,O$&&,O$&&,O$&&,O$&&,O$&&,O$&&,O$&,O",
"$&&:+$&&:+$&&:+$&&:+$&&:+$&&:+$&&:+$&&:+$&&:+$&&:+$&&:+$&&:+$&:+",
"#$$*+#$$*+#$$*+#$$*+#$$*+#$$*+#$$*+#$$*+#$$*+#$$*+#$$*+#$$*+#$*+",
"++++++++++++++++++++++++++++++++++++++++++++++++++++++++++++++++",
":::,,,,,,,,<<<<<<<<<<<<<<<<<<<<<<<<<<<<<<<<<<<<<<<<<<<<<,,,,::::",
"&&&&&&&&&&&&&&&&&&&&&&&&&&&&&&&&&&&&&&&&&&&&&&&&&&&&&&&&&&&&&&&&"
};
