/* XPM */
static char *result[] = {
/* columns rows colors chars-per-pixel */
"64 64 26 1 ",
"  c #5A2423",
". c #703634",
"X c #7C3C3A",
"o c #4D633D",
"O c #7A4644",
"+ c #556D44",
"@ c #576B48",
"# c #5E784B",
"$ c #607650",
"% c #874D4B",
"& c #835452",
"* c #915D5B",
"= c #9A6B69",
"- c #A37876",
"; c #688453",
": c #738565",
"> c #758F62",
", c #7F9370",
"< c #819970",
"1 c #8CA27C",
"2 c #A48482",
"3 c #AB8482",
"4 c #B28F8D",
"5 c #B89997",
"6 c #96AA87",
"7 c None",
/* pixels */
"7777777777777777777777777777777777777777777777777777777777777777",
"7777777777777777777777777777777777777777777777777777777777777777",
"7777777777777777777777777777777777777777777777777777777777777777",
"7777777777777777777777777777777777777777777777777777777777777777",
"7777777777777777777777777777777777777777777777777777777777777777",
"7777777777777777777777777777777777777777777777777777777777777777",
"7777777777777777777777777777677777777777777777777777777777777777",
"7777777777777777777776777711777777777777777777777777777777777777",
"777777777777777777711;7711>;777777717777777777777777777777777777",
"777777777777777777<>;+7>;;;;777711177777777777777777777777777777",
"7777777777777777711;;+>>;;;#><111;;77777777777777777777777777777",
"777777777777777771;;;+;;;;#;;;;;;#+77777777777777777777777777777",
"77777777777777<<@$;;;o;;;;;;;;##++777777777777777777777777777777",
"77777777777111;;;o;;;;;###3-43==oo777777777777777777777777777777",
"77777777711<;;;;;;;;##ooo23-3 &*%7777777777777777777777777777777",
"7777777717;#+++;;;###oo553-=*&*%%%777777777777777777777777777777",
"77777777777777;;;-335555--=**%%%%%X77777777777777777777777777777",
"77777777777711;*==-----==***%==%%XX77777777777777777777777777777",
"777777777777<#**3-**3-****%%%= OXXXX7777777777777777777777777777",
"77777777771,o***= &*- &*%%%%%%OXX**X7777777777777777777777777777",
"777777777,:@o==**O%%%O%%%%%X**XXX* .7777777777777777777777777777",
"77777777,777%* .==%%%%%**XXX* .XXX.X7777777777777777777777777777",
"777777777777%%.X* .XXXX* .XXX.XXXXXX7777777777777777777777777777",
"7777777777777XXXX.XXXXXX.XXXXXXXXXXX7777777777777777777777777777",
"7777777777777XXXXXXXXXXXXXX**XXX**XX7777777777777777777777777777",
"77777777777777XXXXXXXXXXXXX* .XX* .X7777777777777777777777777777",
"777777777777777XXX**X**XXXXX.XXXX.XX7777777777777777777777777777",
"7777777777777777XX* .* .X**XXXXX**XX7777777777777777777777777777",
"7777777777777777XXX.XX.XX* .XXXX* .77777777777777777777777777777",
"77777777777777777XXXXXXXXX.X**XXX.X77777777777777777777777777777",
"777777777777777777XXXXXXXXXX* .XXX777777777777777777777777777777",
"7777777777777777777XXXXX**XXX.XXXX777777777777777777777777777777",
"777777777777777777777XXX* .X**XXX7777777777777777777777777777777",
"77777777777777777777777XX.XX* .X77777777777777777777777777777777",
"7777777777777777777777777XXXX.X777777777777777777777777777777777",
"7777777777777777777777777777777777777777777777777777777777777777",
"7777777777777777777777777777777777777777777777777777777777777777",
"7777777777777777777777777777777777777777777777777777777777777777",
"7777777777777777777777777777777777777777777777777777777777777777",
"7777777777777777777777777777777777777777777777777777777777777777",
"7777777777777777777777777777777777777777777777777777777777777777",
"7777777777777777777777777777777777777777777777777777777777777777",
"7777777777777777777777777777777777777777777777777777777777777777",
"7777777777777777777777777777777777777777777777777777777777777777",
"7777777777777777777777777777777777777777777777777777777777777777",
"7777777777777777777777777777777777777777777777777777777777777777",
"7777777777777777777777777777777777777777777777777777777777777777",
"7777777777777777777777777777777777777777777777777777777777777777",
"7777777777777777777777777777777777777777777777777777777777777777",
"7777777777777777777777777777777777777777777777777777777777777777",
"7777777777777777777777777777777777777777777777777777777777777777",
"7777777777777777777777777777777777777777777777777777777777777777",
"7777777777777777777777777777777777777777777777777777777777777777",
"7777777777777777777777777777777777777777777777777777777777777777",
"7777777777777777777777777777777777777777777777777777777777777777",
"7777777777777777777777777777777777777777777777777777777777777777",
"7777777777777777777777777777777777777777777777777777777777777777",
"7777777777777777777777777777777777777777777777777777777777777777",
"7777777777777777777777777777777777777777777777777777777777777777",
"7777777777777777777777777777777777777777777777777777777777777777",
"7777777777777777777777777777777777777777777777777777777777777777",
"7777777777777777777777777777777777777777777777777777777777777777",
"7777777777777777777777777777777777777777777777777777777777777777",
"7777777777777777777777777777777777777777777777777777777777777777"
};
