/* XPM */
static char *result[] = {
/* columns rows colors chars-per-pixel */
"64 64 51 1 ",
"  c #160D0F",
". c #140E0E",
"X c #161010",
"o c #191212",
"O c #1F1B1A",
"+ c #231E1D",
"@ c #272120",
"# c #2B2524",
"$ c #2D2727",
"% c #352826",
"& c #3B2D2A",
"* c #3C3532",
"= c #3A3434",
"- c #3E3837",
"; c #433B37",
": c #473B39",
"> c #4C3F3D",
", c #4A413D",
"< c #70573B",
"1 c #693A40",
"2 c #524441",
"3 c #524844",
"4 c #5B504B",
"5 c #5A524E",
"6 c #744047",
"7 c #764B51",
"8 c #615854",
"9 c #695F5B",
"0 c #7C5352",
"q c #766D69",
"w c #7C746E",
"e c #80474F",
"r c #8D4F57",
"t c #895C5B",
"y c #8A7452",
"u c #975E66",
"i c #976665",
"p c #827A76",
"a c #A7716F",
"s c #A06C73",
"d c #A07372",
"f c #AE7D7B",
"g c #A87F7E",
"h c #9A815C",
"j c #898079",
"k c #A48D6C",
"l c #AD987A",
"z c #978D86",
"x c #B58886",
"c c #A69C94",
"v c #AEA49D",
/* pixels */
"llllllk<lllllllllllllllllllllllllllllll<llllllllllllllllllllllll",
"hhhhk<h<l<khhhhhhhhhhhhhhhhhhhhhhhhhk<h<l<khhhhhhhhhhhhhhhhhhhhh",
"hhhhhky<lkhhhhhhhhhhhhhhhhhhhhhhhhhhhky<lkhhhhhhhhhhhhhhhhhhhhhh",
"hhhhhhy<lhhhhhhhhhhhhhhhhhhhhhhhhhhhhhy<lhhhhhhhhhhhhhhhhhhhhhhh",
"hhhhhyy<lyhhhhhhhhhhhhhhhhhhhhhhhhhhhyy<lyhhhhhhhhhhhhhhhhhhhhhh",
"hhhhy<y<l<yhhhhhhhhhhhhhhhhhhhhhhhhhy<y<l<yhhhhhhhhhhhhhhhhhhhhh",
"yyyyyyy<lyyyyyyyyyyyyyyyyyyyyyyyyyyyyyy<kyyyyyyyyyyyyyyyyyyyyyyy",
"<<<<<<<<<<<<<<<<<<<<<<<<<<<<<<<<<<<<<<<<<<<<<<<<<<<<<<<<<<<<<<<<",
"llllllllllllllllllllllk<llllllllllllllllllllllllllllllk<llllllll",
"hhhhhhhhhhhhhhhhhhhhk<h<l<khhhhhhhhhhhhhhhhhhhhhhhhhk<h<l<khhhhh",
"hhhhhhhhhhhhhhhhhhhhhky<lkhhhhhhhhhhhhhhhhhhhhhhhhhhhky<lkhhhhhh",
"hhhhhhhhhhhhhhhhhhhhhhy<lhhhhhhhhhhhhhhhhhhhhhhhhhhhhhy<lhhhhhhh",
"hhhhhhhhhhhhhhhhhhhhhyy<lyhhhhhhhhhhhhhhhhhhhhhhhhhhhyy<lyhhhhhh",
"hhhhhhhhhhhhhhhhhhhhy<y<l<yhhhhhhhhhhhhhhhhhhhhhhhhhy<y<l<yhhhhh",
"yyyyyyyyyyyyyyyyyyyyyyy<kyyyyyyyyyyyyyyyyyyyyyyyyyyyyyy<kyyyyyyy",
"<<<<<<<<<<<<<<<<<<<<<<<<<<<<<<<<<<<<<<<<<<<<<<<<<<<<<<<<<<<<<<<<",
"llllllk<llllllllllllllllllllllllllllllk<llllllllllllllllllllllll",
"hhhhk<h<l<khhhhhhhhhhhhhhhhhhhhhhhhhk<h<l<khhhhhhhhhhhhhhhhhhhhh",
"hhhhhky<lkhhhhhhhhhhhhhhhhhhhhhhhhhhhky<lkhhhhhhhhhhhhhhhhhhhhhh",
"hhhhhhy<lhhhhhhhhhhhhhhhhhh999qqqqqhhhy<lhhhhhhhhhhhhhhhhhhhhhhh",
"hhhhhyy<lyhhhhhhhhhhhhhhhh222244999pqyy<lyhhhhhhhhhhhhhhhhhhhhhh",
"hhhhy<y<l<yhhhhhhhhhhhh344444444444449q<l<yhhhhhh6hhhhhhhhhhhhhh",
"yyyyyyy<kyyyyyyyyyyyyy3333338883444444qqkyyyyyyyiyyyyyyyyyyyyyyy",
"<<<<<<<<<<<<<<<<<<<<<3;@#@3449;+ooo44449q<<<<<<<s<<<<<<<<<<<<<<<",
"lllllllllllllllllllll3*oo@j444;@roo9939399llllllglllllk<llllllll",
"hhhhhhhhhhhhhhhhhhhh3,jwXocz34zjcc44433499phhhhh6fhhk<h<l<khhhhh",
"hhhhhhhhhhhhhhhhhhhh3,zzwccz34ccccv4944499qhhhhh1dhhhky<lkhhhhhh",
"hhhhhhhhhhhhhhhhhhh33,zzccczz4ccccv444494999hhhhhehhhhy<lhhhhhhh",
"hhhhhhhhhhhhhhhhhhh33,zzccccz4ccccv44949349qhhhhh6shhyy<lyhhhhhh",
"hhhhhhhhhhhhhhhhhhh33,zzccccccccccv444343489qhhhhhigs<y<l<yhhhhh",
"yyyyyyyyyyyyyyyyyyy33,zzzcccccccccv4444444999yyyyy1rfyy<kyyyyyyy",
"<<<<<<<<<<<<<<<<<<333,,zzcc#ccc#cv4444449333q<<<<<<6is<<<<<<<<<<",
"llllllk<llllllllll333,**jccjcccjcv4449944448qlllllll6fllllllllll",
"hhhhk<h<l<khhhhhhh3333;;*Ozcccccv444244939499hhhhhhh1xhhhhhhhhhh",
"hhhhhky<lkhhhhhhhh@333,;;*Occccc4444>24244999hhhhhhh1xhhhhhhhhhh",
"hhhhhhy<lhhhhhhhh##333,%;;;zzcav4449::>;44981exhhhh6ifhhhhhhhhhh",
"hhhhhyy<lyhhhhhhh##+33,,%;;;jzf44449:::;449716rfhheirhhhhhhhhhhh",
"hhhhy<y<l<yhhhhhh##@+,,;;&;34444494:y<o54-9hhh16eirethhhhhhhhhhh",
"yyyyyyy<kyyyyyyyy##@3,;;;;%34444949yyyo%+--yyyyy66tyyyyyyyyyyyyy",
"<<<<<<<<<<<<<<<<##@@++;*<<<<34#4-9-<<<oX. $<<<<<<<<<<<<<<<<<<<<<",
"llllllllllllllll@@@+O++<llll@44#9--llloo..llllllllllllk<llllllll",
"hhhhhhhhhhhheefaf++Ok<h<l<khhO##=-hhh66XXXhhhhhhhhhhk<h<l<khhhhh",
"hhhhhhhhhhhhhheii06Ohky<lkhhhO@==hhh6h6euhhhhhhhhhhhhky<lkhhhhhh",
"hhhhhhhhhhhhhhhhhhhhhhy<lhhhh@t=-hhhhhhhhhhhhhhhhhhhhhy<lhhhhhhh",
"hhhhhhhhhhhhhhhhhhhhhyy<lyhe0ixfhhhhhhhhhhhhhhhhhhhhhyy<lyhhhhhh",
"hhhhhhhhhhhhhhhhhhhhy<y<l<y6hhhhhhhhhhhhhhhhhhhhhhhhy<y<l<yhhhhh",
"yyyyyyyyyyyyyyyyyyyyyyy<kyyyyyyyyyyyyyyyyyyyyyyyyyyyyyy<kyyyyyyy",
"<<<<<<<<<<<<<<<<<<<<<<<<<<<<<<<<<<<<<<<<<<<<<<<<<<<<<<<<<<<<<<<<",
"llllllk<llllllllllllllllllllllllllllllk<llllllllllllllllllllllll",
"hhhhk<h<l<khhhhhhhhhhhhhhhhhhhhhhhhhk<h<l<khhhhhhhhhhhhhhhhhhhhh",
"hhhhhky<lkhhhhhhhhhhhhhhhhhhhhhhhhhhhky<lkhhhhhhhhhhhhhhhhhhhhhh",
"hhhhhhy<lhhhhhhhhhhhhhhhhhhhhhhhhhhhhhy<lhhhhhhhhhhhhhhhhhhhhhhh",
"hhhhhyy<lyhhhhhhhhhhhhhhhhhhhhhhhhhhhyy<lyhhhhhhhhhhhhhhhhhhhhhh",
"hhhhy<y<l<yhhhhhhhhhhhhhhhhhhhhhhhhhy<y<l<yhhhhhhhhhhhhhhhhhhhhh",
"yyyyyyy<kyyyyyyyyyyyyyyyyyyyyyyyyyyyyyy<kyyyyyyyyyyyyyyyyyyyyyyy",
"<<<<<<<<<<<<<<<<<<<<<<<<<<<<<<<<<<<<<<<<<<<<<<<<<<<<<<<<<<<<<<<<",
"llllllllllllllllllllllk<llllllllllllllllllllllllllllllk<llllllll",
"hhhhhhhhhhhhhhhhhhhhk<h<l<khhhhhhhhhhhhhhhhhhhhhhhhhk<h<l<khhhhh",
"hhhhhhhhhhhhhhhhhhhhhky<lkhhhhhhhhhhhhhhhhhhhhhhhhhhhky<lkhhhhhh",
"hhhhhhhhhhhhhhhhhhhhhhy<lhhhhhhhhhhhhhhhhhhhhhhhhhhhhhy<lhhhhhhh",
"hhhhhhhhhhhhhhhhhhhhhyy<lyhhhhhhhhhhhhhhhhhhhhhhhhhhhyy<lyhhhhhh",
"hhhhhhhhhhhhhhhhhhhhy<y<l<yhhhhhhhhhhhhhhhhhhhhhhhhhy<y<l<yhhhhh",
"yyyyyyyyyyyyyyyyyyyyyyy<kyyyyyyyyyyyyyyyyyyyyyyyyyyyyyy<kyyyyyyy",
"<<<<<<<<<<<<<<<<<<<<<<<<<<<<<<<<<<<<<<<<<<<<<<<<<<<<<<<<<<<<<<<<"
};
