/* XPM */
static char *_ded21e4e0f34110c0eda85fd8c00d57Gc38B39H3EERH6iK[] = {
/* columns rows colors chars-per-pixel */
"64 64 56 1 ",
"  c None",
". c #120C0C",
"X c #160D0F",
"o c #140E0E",
"O c #161010",
"+ c #191212",
"@ c #1C1817",
"# c #1F1B1A",
"$ c #231E1D",
"% c #272120",
"& c #2B2524",
"* c #2D2727",
"= c #352826",
"- c #3B2D2A",
"; c #363231",
": c #3C3532",
"> c #3A3434",
", c #3E3837",
"< c #423735",
"1 c #433B37",
"2 c #473B39",
"3 c #4C3F3D",
"4 c #4A413D",
"5 c #693A40",
"6 c #4F4949",
"7 c #524441",
"8 c #524844",
"9 c #534C49",
"0 c #5B504B",
"q c #5A524E",
"w c #744047",
"e c #764B51",
"r c #615452",
"t c #615854",
"y c #695F5B",
"u c #7C5352",
"i c #706964",
"p c #766D69",
"a c #7C746E",
"s c #80474F",
"d c #8D4F57",
"f c #895C5B",
"g c #975E66",
"h c #976665",
"j c #827A76",
"k c #A7716F",
"l c #A06C73",
"z c #A07372",
"x c #AE7D7B",
"c c #A87F7E",
"v c #898079",
"b c #978D86",
"n c #AF858A",
"m c #B58886",
"M c #A69C94",
"N c #AEA49D",
/* pixels */
"                                                                ",
"                                                                ",
"                                                                ",
"                                                                ",
"                                                                ",
"                                                                ",
"                                                                ",
"                                                                ",
"                                                                ",
"                                                                ",
"                                                                ",
"                        0yyypppjpppp                            ",
"                       77777000yyyyyjp                          ",
"                     000000077000000yypp                fz      ",
"                   8000000000000000000ypp              w        ",
"                  88808888tttt800000000ypp            h         ",
"                 84144888800y89&&&00y0000pp           z         ",
"                841%&&%8400yt1$++++0000y0ypp          l         ",
"                84:+++%v800081%ud++0yy8yy8yyy         c         ",
"               888aOdu%bM0000i+v++000yy8y0yypp        zn        ",
"              8844vaOv+MMb800bvMMM00008y800yyj        wx        ",
"              8844bbaMMMMb800MMMMMN00y0y000yypy       5z        ",
"              8844bMMMMMMbb0MMMMMMN000000000ypj       5hl       ",
"             88844bbMMMMMbb0MMMMMMN000000y80yypy       sm       ",
"             88844bbMMMMMMb0MMMMMMN000y80y880yyp       whl      ",
"             88844bbMMMMMMb0MMMMMMN000y880880y0yp       smm     ",
"             88844bbMMMMMMMMMMMMMMN0000y80y80t0yp       5hcl    ",
"             88844bbbMMMMMMMMMMMMMN0000000000yyyy        5dx    ",
"            8888444bbMMMMMMMMMMMMN000000000y00yyp         whm   ",
"            8888444bbbMMv&MMMM&vMN000000000y88y8p         whml  ",
"            888844::vbMMMvMMMMvMMN0000y0y00000ytp          wdx  ",
"            8888841::$bMMMMMMMMMN00000000000y8yyy          wsm  ",
"            88888411::#bMMMMMMMMN000070y0y38y0yyy          5wm  ",
"            %88884411::#MMMMMMMN0000037007400yyyys         5wm  ",
"           &%8888421111:$bMMMMMN0000y237y21000yy0wl        5hl  ",
"           &&8$8844=1111:bbMMkN00000y22r31400yyt55sm      whkx  ",
"           &&$$88444=11111vbdx000000y22221t00y0e55wdxg   shdg   ",
"           &&8$844441=11441ddm000y0y7<<<118&0y6  55wdkxhwhkkz   ",
"           &&%8$444111-1180000000y072   +q%0,y6    5wsshkdsf    ",
"          &&&%%84#11111=-8000000y0y3    +=q$,,,      5ww5f      ",
"          &&&%%$$1111    -80000y0yy     +oooO,                  ",
"         &&&%%%$$#1:      800&0y,y,     +O.oo*                  ",
"         %%%%$$#$#$       %0&0&ty,,     ++ooo                   ",
"       xmm%$$$#@$         #$%&0p,,,     +O+OO                   ",
"    ssxkkxh$$#@            #%&&,>,    wwwOgOO                   ",
"      swhhuuw##            #%%>,>    w 5wsgg                    ",
"     s  wwww               @#;>,,     s s                       ",
"       w                   %#f>g,      d                        ",
"                        ssuhzmxg                                ",
"                          sdfssd                                ",
"                         w  w                                   ",
"                                                                ",
"                                                                ",
"                                                                ",
"                                                                ",
"                                                                ",
"                                                                ",
"                                                                ",
"                                                                ",
"                                                                ",
"                                                                ",
"                                                                ",
"                                                                ",
"                                                                "
};
