/* XPM */
static char *result[] = {
/* columns rows colors chars-per-pixel */
"64 64 10 1 ",
"  c #3D3D3C",
". c #4E4E4D",
"X c #6F6B6B",
"o c #7B7878",
"O c #868484",
"+ c #908F8F",
"@ c gray60",
"# c #A2A2A2",
"$ c #AAAAAA",
"% c None",
/* pixels */
"%%%%%%%%%%%%%%%%%%%%%%%%%%%%%%%%%%%%%%%%%%%%%%%%%%%%%%%%%%%%%%%%",
"%%%%%%%%%%%%%%%%%%%%%%%%%%%%%%%%%%%%%%%%%%%%%%%%%%%%%%%%%%%%%%%%",
"%%%%%%%%%%%%%%%%%%%%%%%                     %%%%%%%%%%%%%%%%%%%%",
"%%%%%%%%%%%%%%%%%%%%%%  #@@@+++++OOOOOOoooX  %%%%%%%%%%%%%%%%%%%",
"%%%%%%%%%%%%%%%%%%     @@                 XX     %%%%%%%%%%%%%%%",
"%%%%%%%%%%%%%      ### @O ###@@+++++OOOOO.XX ooo      %%%%%%%%%%",
"%%%%%%%%%%%   @@@@++++ + oOOOOOOOOOOooooXX X XXXXoooo   %%%%%%%%",
"%%%%%%%    @@@+++OOOOOO  XXXXXXXXXXXXXXXXX  XXXXXXXXXXoo    %%%%",
"%%%%%   @##@++ooooXXXXXXXXXXXXXXXXXXXXXXXXXXXXXXXXXXXXXXXoo   %%",
"%%%%  $ .@+OOOoXXXXXXXXXXXXXXXXXXXXXXXXXXXXXXXXXXXXXXXXXXX  X  %",
"%%%% $$@@   oooXXXXXXXXXXXXXXXXXXXXXXXXXXXXXXXXXXXXXXXX   XXXX %",
"%%%%    @+++           XXXXXXXXXXXXXXXXXXXXX           XXXX    %",
"%%%%%% X   +++++++++++O                     XXXXXXXXXXXX   X %%%",
"%%%%%% XXX           OOOOOOoooooooXXXXXXXXXXXX           XXX %%%",
"%%%%%% XXXXXXXXXXXXXX                         XXXXXXXXXXXXXX %%%",
"%%%%%%% XXXXXXXXXXXXXXXXXXXXXXXXXXXXXXXXXXXXXXXXXXXXXXXXXXX %%%%",
"%%%%%%% XXXX   XXXXXXXXXXXXXXXXXXXXXXXXXXXXXXXXXXXXX   XXXX %%%%",
"%%%%%%% XXX XX  XXXXXXXX     XXXXXXXXX     XXXXXXXX  XX XXX %%%%",
"%%%%%%% XXX XXX XXXXXXX  XXXX XXXXXXX XXXX  XXXXXXX XXX XXX %%%%",
"%%%%%%%% XXXXXX XXXXXX  XXXXX  XXXXX  XXXXX  XXXXXX XXXXXX %%%%%",
"%%%%%%%% XX XXX XXXXXX XXXXXXX XXXXX XXXXXXX XXXXXX XXX XX %%%%%",
"%%%%%%%% XX XXX XXXXXX XXXXXXXXXXXXXXXXXXXXX XXXXXX XXX XX %%%%%",
"%%%%%%%% XX  XX XXXXXX XXXXXXX XXXXX XXXXXXX XXXXXX XX  XX %%%%%",
"%%%%%%%%% XX XX XXXXXX XXXXXXX XXXXX XXXXXXX XXXXXX XX XX %%%%%%",
"%%%%%%%%% XXXXXX XXXXXXXXXXXXX XXXXX XXXXXXXXXXXXX XXXXXX %%%%%%",
"%%%%%%%%% XXXXXX XXXXXXXXXXXXX XXXXX XXXXXXXXXXXXX XXXXXX %%%%%%",
"%%%%%%%%% XXXXXX XXXXXXXXXXXXX XXXXX XXXXXXXXXXXXX XXXXXX %%%%%%",
"%%%%%%%%% XXXXXX XXXXX XXXXXXX XXXXX XXXXXXX XXXXX XXXXXX %%%%%%",
"%%%%%%%%%% XX XX XXXXX XXXXXX XXXXXXX XXXXXX XXXXX XX XX %%%%%%%",
"%%%%%%%%%% XX XX XXXXX XXXXXX XXXXXXX XXXXXX XXXXX XX XX %%%%%%%",
"%%%%%%%%%% XX XX XXXXX XXXXXX XXXXXXX XXXXXX XXXXX XX XX %%%%%%%",
"%%%%%%%%%% XXX X XXXXX XXXXXXXXXXXXXXXXXXXXX XXXXX X XXX %%%%%%%",
"%%%%%%%%%%% XX X XXXXX XXXXXXXXXXXXXXXXXXXXX XXXXX X XX %%%%%%%%",
"%%%%%%%%%%% XXXXX XXXX XXXXXXXXXXXXXXXXXXXXX XXXX XXXXX %%%%%%%%",
"%%%%%%%%%%% XXXXX XXXX XXXXXX XXXXXXX XXXXXX XXXX XXXXX %%%%%%%%",
"%%%%%%%%%%% XXXXX XXXX XXXXXX XXXXXXX XXXXXX XXXX XXXXX %%%%%%%%",
"%%%%%%%%%%%% XXXX XXXX XXXXXX XXXXXXX XXXXXX XXXX XXXX %%%%%%%%%",
"%%%%%%%%%%%% X XX XXXX XXXXXX XXXXXXX XXXXXX XXXX XX X %%%%%%%%%",
"%%%%%%%%%%%% X XX XXXX XXXXXX XXXXXXX XXXXXX XXXX XX X %%%%%%%%%",
"%%%%%%%%%%%% X XX XXXX XXXXXX XXXXXXX XXXXXX XXXX XX X %%%%%%%%%",
"%%%%%%%%%%%% X  X  XXX XXXXXX XXXXXXX XXXXXX XXX  X  X %%%%%%%%%",
"%%%%%%%%%%%%% X XX XXX XXXXXX XXXXXXX XXXXXX XXX XX X %%%%%%%%%%",
"%%%%%%%%%%%%% X XX XXXX XXXXX XXXXXXX XXXXX XXXX XX X %%%%%%%%%%",
"%%%%%%%%%%%%% XXXX XXXX XXXXX XXXXXXX XXXXX XXXX XXXX %%%%%%%%%%",
"%%%%%%%%%%%%% XXXX XXXX XXXXX XXXXXXX XXXXX XXXX XXXX %%%%%%%%%%",
"%%%%%%%%%%%%%% XXX XXXX XXXXX XXXXXXX XXXXX XXXX XXX %%%%%%%%%%%",
"%%%%%%%%%%%%%% X XX XXX XXXXXXXXXXXXXXXXXXX XXX XX X %%%%%%%%%%%",
"%%%%%%%%%%%%%% X XX XXX XXXXXXXXXXXXXXXXXXX XXX XX X %%%%%%%%%%%",
"%%%%%%%%%%%%%% X XX XXX XXXXX XXXXXXX XXXXX XXX XX X %%%%%%%%%%%",
"%%%%%%%%%%%%%% XXXX XXX XXXXXXXXXXXXXXXXXXX XXX XXXX %%%%%%%%%%%",
"%%%%%%%%%%%%%%% X X XXX  XXXXXXXXXXXXXXXXX  XXX X X %%%%%%%%%%%%",
"%%%%%%%%%%%%%%% X X  XXX XXXXXXXXXXXXXXXXX XXX  X X %%%%%%%%%%%%",
"%%%%%%%%%%%%%%% XXXX XXX XXXXXXXXXXXXXXXXX XXX XXXX %%%%%%%%%%%%",
"%%%%%%%%%%%%%%% XXXX XXX XXXXXXXXXXXXXXXXX XXX XXXX %%%%%%%%%%%%",
"%%%%%%%%%%%%%%%% XXX XXX XXXXXXXXXXXXXXXXX XXX XXX %%%%%%%%%%%%%",
"%%%%%%%%%%%%%%%% X X XXX  XXX XXXXXXX XXX  XXX X X %%%%%%%%%%%%%",
"%%%%%%%%%%%%%%%% X XX XXX XXX XXXXXXX XXX XXX XX X %%%%%%%%%%%%%",
"%%%%%%%%%%%%%%%% XX  XXXX  XX XXXXXXX XX  XXXX  XX %%%%%%%%%%%%%",
"%%%%%%%%%%%%%%%%% XXXXXXXX   XXXXXXXXX   XXXXXXXX %%%%%%%%%%%%%%",
"%%%%%%%%%%%%%%%%% XXXXXXXXXXXXXXXXXXXXXXXXXXXXXXX %%%%%%%%%%%%%%",
"%%%%%%%%%%%%%%%%% XXXXXXXXXXXXXXXXXXXXXXXXXXXXXXX %%%%%%%%%%%%%%",
"%%%%%%%%%%%%%%%%%%    XXXXXXXXXXXXXXXXXXXXXXX    %%%%%%%%%%%%%%%",
"%%%%%%%%%%%%%%%%%%%%%%        XXXXXXX        %%%%%%%%%%%%%%%%%%%",
"%%%%%%%%%%%%%%%%%%%%%%%%%%%%           %%%%%%%%%%%%%%%%%%%%%%%%%"
};
