/* XPM */
static char *result[] = {
/* columns rows colors chars-per-pixel */
"64 64 59 1 ",
"  c #110C0C",
". c #130E0E",
"X c #161010",
"o c #191212",
"O c #181413",
"+ c #1B1716",
"@ c #1E1A19",
"# c #221D1C",
"$ c #262120",
"% c #2B2524",
"& c #302929",
"* c #393330",
"= c #383332",
"- c #3B3736",
"; c #403936",
": c #403A39",
"> c #48403C",
", c #70573B",
"< c #713F46",
"1 c #514843",
"2 c #534D4C",
"3 c #5B504B",
"4 c #7C454C",
"5 c #795150",
"6 c #6B615D",
"7 c #6C6560",
"8 c #78716B",
"9 c #79706D",
"0 c #8D4F57",
"q c #865258",
"w c #875A59",
"e c #8A5C5B",
"r c #8A7452",
"t c #955B63",
"y c #8A6463",
"u c #966563",
"i c #976664",
"p c #986067",
"a c #936A69",
"s c #867E77",
"d c #867E7B",
"f c #A6706D",
"g c #A7716F",
"h c #A07472",
"j c #A37B79",
"k c #AF7F7D",
"l c #9A815C",
"z c #A48D6C",
"x c #AD987A",
"c c #958C85",
"v c #9C9590",
"b c #A98180",
"n c #B18381",
"m c #B78B89",
"M c #A69C94",
"N c #B5A287",
"B c #AEA59E",
"V c #B6AEA7",
"C c #BDB6AF",
/* pixels */
"xxxxxxz,xxxxxxxxxxxxxxxxxxxxxxxxxxxxxxx,xxxxxxxxxxxxxxxxxxxxxxxx",
"llllz,l,x,zlllllllllllllllllllllllllz,l,x,zlllllllllllllllllllll",
"lllllzr,xzlllllllllllllllllllllllllllzr,xzllllllllllllllllllllll",
"llllllr,xlllllllllllllllllllllllllllllr,xlllllllllllllllllllllll",
"lllllrr,xrlllllllllllllllllllllllllllrr,xrllllllllllllllllllllll",
"llllr,r,x,rlllllllllllllllllllllllllr,r,x,rlllllllllllllllllllll",
"rrrrrrr,xrrrrrrrrrrrrrrrrrrrrrrrrrrrrrr,zrrrrrrrrrrrrrrrrrrrrrrr",
",,,,,,,,,,,,,,,,,,,,,,,,,,,,,,,,,,,,,,,,,,,,,,,,,,,,,,,,,,,,,,,,",
"xxxxxxxxxxxxxxxxxxxxxxz,xxxxxxxxxxxxxxxxxxxxxxxxxxxxxxz,xxxxxxxx",
"llllllllllllllllllllz,l,x,zlllllllllllllllllllllllllz,l,x,zlllll",
"lllllllllllllllllllllzr,xzlllllllllllllllllllllllllllzr,xzllllll",
"llllllllllllllllllllllr,xlllllllllllllllllllllllllllllr,xlllllll",
"lllllllllllllllllllllrr,xrlllllllllllllllllllllllllllrr,xrllllll",
"llllllllllllllllllllr,r,x,rlllllllllllllllllllllllllr,r,x,rlllll",
"rrrrrrrrrrrrrrrrrrrrrrr,zrrrrrrrrrrrrrrrrrrrrrrrrrrrrrr,zrrrrrrr",
",,,,,,,,,,,,,,,,,,,,,,,,,,,,,,,,,,,,,,,,,,,,,,,,,,,,,,,,,,,,,,,,",
"xxxxxxz,xxxxxxxxxxxxxxxxxxxxxxxxxxxxxxz,xxxxxxxxxxxxxxxxxxxxxxxx",
"llllz,l,x,zlllllllllllllllllllllllllz,l,x,zlllllllllllllllllllll",
"lllllzr,xzlllllllllllllllllllllllllllzr,xzllllllllllllllllllllll",
"llllllr,xlllllllllllllllllllllllllllllr,xlllllllllllllllllllllll",
"lllllrr,xrlllllllllllllllllllllllllllrr,xrllllllllllllllllllllll",
"llllr,r,x,rlllllllllllllllllllllllllr,r,x,rlllllllllllllllllllll",
"rrrrrrr,zrrrrrrrrrrrrrrrrrrrrrrrrrrrrrr,zrrrrrrrrrrrrrrrrrrrrrrr",
",,,,,,,,,,,,,,,,,,,,,,,,,,,,,,,,,,,,,,,,,,,,,,,,,,,,,,,,,,,,,,,,",
"xxxxxxxxxxxxxxxxxxxxxxz,Nxxxxxxxxxxxxxxxxxxxxxxxxxxxxxz,xxxxxxxx",
"llllllllllllklkllllpzpl,x,zllllllllllllllljlnlllllllz,l,x,zlllll",
"llllllllllllwkgllll<ppr,xzllllllllllllllllejnllqltlllzr,xzllllll",
"llllllllllll#g:llll 0&r,xllllllllllllllllleifll4ttllllr,xlllllll",
"llllllllllll#%:llll Xo&&xrlllllllllllllll:yf#ll44tlllrr,xrllllll",
"llllllllllll@-%::ll. oo&&,rllllllllllllll:%$#loo40llr,r,x,rlllll",
"rrrrrrrrrrrr@@%%6699 .&o&&rrrrrrrrrrrrr::$#@@oooorrrrVVkzrrrrrrr",
",,,,,,,,,,,,,$$363699Xooo&,,,,,,,,,,,,:%$@@+ooooo,VCVVsw,,,,,,,,",
"xxxxxxz,xxxxx>1333369XX9999d9ddd999d6%%#$+@oooooxVCVBBcsxxxxxxxx",
"llllz,l,x,zl>>1333336>;6669999999966631#+@3oovBBBVBBMMcsllllllll",
"lllllzr,xzll*>13333399;>36669666996331>;O33;V66BBBMM:Mcsllllllll",
"llllllr,xlll*>333333336333666636693333311>>;6VBMMMM:o%clllllllll",
"lllllrr,xrll;1333333333333333633633333333>66BMMMMMMM%Mslllllllll",
"llllr,r,x,rl>>33333333333333333333333333366333MMMMMMMMclllllllll",
"rrrrrrr,zrrr;>3333333333333333333333333333333MMMMMMMMcsrrrrrrrrr",
",,,,,,,,,,,,>1333333333333333333333333333333MMMMc2MMcs,,,,,,,,,,",
"xxxxxxxxxxxxx133333333333333333333333333333333Ms=+:cssz,xxxxxxxx",
"lllllllllmmm661131311331331333333331333333333338##-ss,l,x,zlllll",
"lllllllmmkg1>>>1>>>>11>11>1>13331>>111>111>1113;7$:88zr,xzllllll",
"lllllllmuww5;>>;;;;;;;;>>>>;>1>>313>1111>>>>>>>1;88lllr,xlllllll",
"llllllmgullllllllllllrr;;;;>;*;;;>;;>1>>;>>llllllllllrr,xrllllll",
"llllllugglllllllllllr,r,x,rlllllllllllllllllllllllllr,r,x,rlllll",
"rrrrrrrukmrrrrrrrrrrrrr,zrrrrrrrrrrrrrrrrrrrrrrrrrrrrrr,zrrrrrrr",
",,,,,,,uuuhmm,,,,,,,,,,,,,,,,,,,,,,,,,,,,,,,,,,,,,,,,,,,,,,,,,,,",
"xxxxxxz,wwwuhhkmmmxxxxxxxxxxxxxxxxxxxxz,xxxxxxxxxxxxxxxxxxxxxxxx",
"llllz,l,x,wwwwwwuuhhhkmmmlllllllllllz,l,x,zlllllllllllllllllllll",
"lllllzr,xzlllllllwwwwwwwuklllllllllllzr,xzllllllllllllllllllllll",
"llllllr,xllllllllllllllllwahblllllllllr,xlllllllllllllllllllllll",
"lllllrr,xrlllllllllllllllllllllllllllrr,xrllllllllllllllllllllll",
"llllr,r,x,rlllllllllllllllllllllllllr,r,x,rlllllllllllllllllllll",
"rrrrrrr,zrrrrrrrrrrrrrrrrrrrrrrrrrrrrrr,zrrrrrrrrrrrrrrrrrrrrrrr",
",,,,,,,,,,,,,,,,,,,,,,,,,,,,,,,,,,,,,,,,,,,,,,,,,,,,,,,,,,,,,,,,",
"xxxxxxxxxxxxxxxxxxxxxxz,xxxxxxxxxxxxxxxxxxxxxxxxxxxxxxz,xxxxxxxx",
"llllllllllllllllllllz,l,x,zlllllllllllllllllllllllllz,l,x,zlllll",
"lllllllllllllllllllllzr,xzlllllllllllllllllllllllllllzr,xzllllll",
"llllllllllllllllllllllr,xlllllllllllllllllllllllllllllr,xlllllll",
"lllllllllllllllllllllrr,xrlllllllllllllllllllllllllllrr,xrllllll",
"llllllllllllllllllllr,r,x,rlllllllllllllllllllllllllr,r,x,rlllll",
"rrrrrrrrrrrrrrrrrrrrrrr,zrrrrrrrrrrrrrrrrrrrrrrrrrrrrrr,zrrrrrrr",
",,,,,,,,,,,,,,,,,,,,,,,,,,,,,,,,,,,,,,,,,,,,,,,,,,,,,,,,,,,,,,,,"
};
