/* XPM */
static char *result[] = {
/* columns rows colors chars-per-pixel */
"64 64 26 1 ",
"  c #1B1611",
". c #211C15",
"X c #241F1A",
"o c #28231D",
"O c #362922",
"+ c #312B24",
"@ c #5C1B09",
"# c #6E1B04",
"$ c #5A281A",
"% c #71220C",
"& c #452922",
"* c #42322A",
"= c #55332A",
"- c #433E37",
"; c #6E3120",
": c #683F34",
"> c #70573B",
", c #872105",
"< c #884431",
"1 c #9C4832",
"2 c #8A7452",
"3 c #AD6856",
"4 c #9A815C",
"5 c #A48D6C",
"6 c #AD987A",
"7 c #B5A287",
/* pixels */
"6666665>6666666666666666666666666666666>666666666666666666666666",
"44445>4>6>544444444444444444444444445>4>6>5444444444444444444444",
"4444452>6544444444444444444444444444452>654444444444444444444444",
"4444442>6444444444444444444444444444442>644444444444444444444444",
"4444422>6244444444444444444444444444422>624444444444444444444444",
"44442>2>6>244444444444444444444444442>2>6>2444444444444444444444",
"2222222>6222222222222222222222222222222>522222222222222222222222",
">>>>>>>>>>>>>>>>>>>>>>>>>>>>>>>>>>>>>>>>>>>>>>>>>>>>>>>>>>>>>>>>",
"66666666666666666666665>6666666666666666666666666666665>66666666",
"444444444444444444445>4>6>544444444444444444444444445>4>6>544444",
"44444444444444444444452>6544444444444444444444444444452>65444444",
"44444444444444444444442>6444444444444444444444444444442>64444444",
"44444444444444444444422>6244444444444444444444444444422>62444444",
"444444444444444444442>2>6>244444444444444444444444442>2>6>244444",
"22222222222222222222222>5222222222222222222222222222222>52222222",
">>>>>>>>>>>>>>>>>>>>>>>>>>>>>>>>>>>>>>>>>>>>>>>>>>>>>>>>>>>>>>>>",
"6666665>6666666666666666666666666666665>666666666666666666666666",
"44445>4>6>544444444444444444444444445>4>6>5444444444444444444444",
"4444452>6544444444444444444444444444452>654444444444444444444444",
"4444442>6444444444444444444444444444442>644444444444444444444444",
"4444422>6244444444444444444444444444422>624444444444444444444444",
"44442>2>6>244444444444444444444444442>2>6>2444444444444444444444",
"2222222>5222222222222222222222222222222>522222222222222222222222",
">>>>>>>>>>>>>>>>>>>>>>>>>>>>>>>>>>>>>>>>>>>>>>>>>>>>>>>>>>>>>>>>",
"66666666666666666666665>7666666666666666666666666666665>66666666",
"444444444444444444445>4>6>544444444444444444444444445>4>6>544444",
"44444444444444444444452>6544444444444444444444444444452>65444444",
"44444444444444444444442>6444444444444444444444444444442>64444444",
"44444444444444444444422>6244444444444444444444444444422>62444444",
"444444444444444444442>2>6>2.4444.44444444444444444442>2>6>244444",
"22222222222222222222222>5222222222222222222222222222222>52222222",
">>>>>>>>>>>>>>>>>>>>>>>>>>>>---->>>>>>>>>>>>>>>>>>>>>>>>>>>>>>>>",
"6666665>6666666666666666666--++++666665>666666666666666666666666",
"44445>4>6>54444444444444444-+++++4445>4>6>5444444444444444444444",
"4444452>6544444444444444444o++++o444452>654444444444444444444444",
"4444442>6444444444444444444oooooo444442>644444444444444444444444",
"4444422>62444444444444444444XXXX4444422>624444444444444444444444",
"44442>2>6>2444444444444444oooooooo442>2>6>2444444444444444444444",
"2222222>5222222222222222ooo++++++ooo222>522222222222222222222222",
">>>>>>>>>>>>>>>>>>>...  ++++++++++++o  ...>>>>>>>>>>>>>>>>>>>>>>",
"666666666666666666 ... ++--++++++++++o ... 666666666665>66666666",
"44444444444444444  45>4+--++++++++++++4444  444444445>4>6>544444",
"44444444444444444 4445++-+++++++++++++44444 44444444452>65444444",
"4444444444444444444444+--+++++++++++++44444444444444442>64444444",
"4444444444444444444.. +-++++++++++++++  ..4444444444422>62444444",
"444444444444444444 .. +++++++++++++++++ .. 4444444442>2>6>244444",
"22222222222222222  222+++++++++++++++++222  22222222222>52222222",
">>>>>>>>>>>>>>>>> >>>>+++++++++++++++++>>>> >>>>>>>>>>>>>>>>>>>>",
"6666665>66666666666666o+++++*****+++++o>666666666666666666666666",
"44445>4>6>5444444444. o++***********++o .>5444444444444444444444",
"4444452>65444444444 . o+***:::::::***+o . 4444444444444444444444",
"4444442>6444444444  44o**::;;;;;;;::**o>6  444444444444444444444",
"4444422>6244444444 444OO:;;;;;;;;;;;:*O>62 444444444444444444444",
"44442>2>6>2444444444444&$;%%%%%%%%%;;=2>6>2444444444444444444444",
"2222222>522222222222222$$%%,,,,,,,%%$$2>522222222222222222222222",
">>>>>>>>>>>>>>>>>>>>>>>@@@##,131,,,@@@>>>>>>>>>>>>>>>>>>>>>>>>>>",
"66666666666666666666665>6#####<######666666666666666665>66666666",
"444444444444444444445>4>6>54######4444444444444444445>4>6>544444",
"44444444444444444444452>6544444444444444444444444444452>65444444",
"44444444444444444444442>6444444444444444444444444444442>64444444",
"44444444444444444444422>6244444444444444444444444444422>62444444",
"444444444444444444442>2>6>244444444444444444444444442>2>6>244444",
"22222222222222222222222>5222222222222222222222222222222>52222222",
">>>>>>>>>>>>>>>>>>>>>>>>>>>>>>>>>>>>>>>>>>>>>>>>>>>>>>>>>>>>>>>>"
};
