/* XPM */
static char *c1928c662961462ceb6c388a799e6dd5QLigNGz9lXkhRyiC[] = {
/* columns rows colors chars-per-pixel */
"64 64 4 1 ",
"  c #310B00",
". c #3A0E01",
"X c #491405",
"o c #571807",
/* pixels */
"oooooooooooooooooooooooooooooooooooooooooooooooooooooooooooooooo",
"         X          X          X          X          X         X",
".........o..........o..........o..........o..........o.........o",
".........o..........o..........o..........o..........o.........o",
".........o..........o..........o..........o..........o.........o",
"oooooooooooooooooooooooooooooooooooooooooooooooooooooooooooooooo",
"    X         X           X         X           X         X     ",
"....o.........o...........o.........o...........o.........o.....",
"....o.........o...........o.........o...........o.........o.....",
"....o.........o...........o.........o...........o.........o.....",
"....o.........o...........o.........o...........o.........o.....",
"oooooooooooooooooooooooooooooooooooooooooooooooooooooooooooooooo",
"         X          X          X          X          X         X",
".........o..........o..........o..........o..........o.........o",
".........o..........o..........o..........o..........o.........o",
".........o..........o..........o..........o..........o.........o",
".........o..........o..........o..........o..........o.........o",
"oooooooooooooooooooooooooooooooooooooooooooooooooooooooooooooooo",
"    X         X           X         X           X         X     ",
"....o.........o...........o.........o...........o.........o.....",
"....o.........o...........o.........o...........o.........o.....",
"....o.........o...........o.........o...........o.........o.....",
"....o.........o...........o.........o...........o.........o.....",
"oooooooooooooooooooooooooooooooooooooooooooooooooooooooooooooooo",
"         X          X          X          X          X         X",
".........o..........o..........o..........o..........o.........o",
".........o..........o..........o..........o..........o.........o",
".........o..........o..........o..........o..........o.........o",
".........o..........o..........o..........o..........o.........o",
"oooooooooooooooooooooooooooooooooooooooooooooooooooooooooooooooo",
"    X         X           X         X           X         X     ",
"....o.........o...........o.........o...........o.........o.....",
"....o.........o...........o.........o...........o.........o.....",
"....o.........o...........o.........o...........o.........o.....",
"....o.........o...........o.........o...........o.........o.....",
"oooooooooooooooooooooooooooooooooooooooooooooooooooooooooooooooo",
"         X          X          X          X          X         X",
".........o..........o..........o..........o..........o.........o",
".........o..........o..........o..........o..........o.........o",
".........o..........o..........o..........o..........o.........o",
".........o..........o..........o..........o..........o.........o",
"oooooooooooooooooooooooooooooooooooooooooooooooooooooooooooooooo",
"    X         X           X         X           X         X     ",
"....o.........o...........o.........o...........o.........o.....",
"....o.........o...........o.........o...........o.........o.....",
"....o.........o...........o.........o...........o.........o.....",
"....o.........o...........o.........o...........o.........o.....",
"oooooooooooooooooooooooooooooooooooooooooooooooooooooooooooooooo",
"         X          X          X          X          X         X",
".........o..........o..........o..........o..........o.........o",
".........o..........o..........o..........o..........o.........o",
".........o..........o..........o..........o..........o.........o",
".........o..........o..........o..........o..........o.........o",
"oooooooooooooooooooooooooooooooooooooooooooooooooooooooooooooooo",
"    X         X           X         X           X         X     ",
"....o.........o...........o.........o...........o.........o.....",
"....o.........o...........o.........o...........o.........o.....",
"....o.........o...........o.........o...........o.........o.....",
"....o.........o...........o.........o...........o.........o.....",
"oooooooooooooooooooooooooooooooooooooooooooooooooooooooooooooooo",
"         X          X          X          X          X         X",
".........o..........o..........o..........o..........o.........o",
".........o..........o..........o..........o..........o.........o",
".........o..........o..........o..........o..........o.........o"
};
