/* XPM */
static char *result[] = {
/* columns rows colors chars-per-pixel */
"64 64 54 1 ",
"  c #110C0C",
". c #130E0E",
"X c #161010",
"o c #191212",
"O c #181413",
"+ c #1B1716",
"@ c #1E1A19",
"# c #221D1C",
"$ c #262120",
"% c #2B2524",
"& c #302929",
"* c #393330",
"= c #383332",
"- c #3B3736",
"; c #403936",
": c #403A39",
"> c #48403C",
", c #713F46",
"< c #514843",
"1 c #534D4C",
"2 c #5B504B",
"3 c #7C454C",
"4 c #795150",
"5 c #6B615D",
"6 c #6C6560",
"7 c #78716B",
"8 c #79706D",
"9 c #8D4F57",
"0 c #865258",
"q c #875A59",
"w c #8A5C5B",
"e c #955B63",
"r c #8A6463",
"t c #966563",
"y c #976664",
"u c #986067",
"i c #936A69",
"p c #867E77",
"a c #867E7B",
"s c #A6706D",
"d c #A7716F",
"f c #A07472",
"g c #A37B79",
"h c #AF7F7D",
"j c #958C85",
"k c #9C9590",
"l c #A98180",
"z c #B18381",
"x c #B78B89",
"c c #A69C94",
"v c #AEA59E",
"b c #B6AEA7",
"n c #BDB6AF",
"m c None",
/* pixels */
"mmmmmmmmmmmmmmmmmmmmmmmmmmmmmmmmmmmmmmmmmmmmmmmmmmmmmmmmmmmmmmmm",
"mmmmmmmmmmmmmmmmmmmmmmmmmmmmmmmmmmmmmmmmmmmmmmmmmmmmmmmmmmmmmmmm",
"mmmmmmmmmmmmmmmmmmmmmmmmmmmmmmmmmmmmmmmmmmmmmmmmmmmmmmmmmmmmmmmm",
"mmmmmmmmmmmmmmmmmmmmmmmmmmmmmmmmmmmmmmmmmmmmmmmmmmmmmmmmmmmmmmmm",
"mmmmmmmmmmmmmmmmmmmmmmmmmmmmmmmmmmmmmmmmmmmmmmmmmmmmmmmmmmmmmmmm",
"mmmmmmmmmmmmmmmmmmmmmmmmmmmmmmmmmmmmmmmmmmmmmmmmmmmmmmmmmmmmmmmm",
"mmmmmmmmmmmmmmmmmmmmmmmmmmmmmmmmmmmmmmmmmmmmmmmmmmmmmmmmmmmmmmmm",
"mmmmmmmmmmmmmmmmmmmmmmmmmmmmmmmmmmmmmmmmmmmmmmmmmmmmmmmmmmmmmmmm",
"mmmmmmmmmmmmmmmmmmmmmmmmmmmmmmmmmmmmmmmmmmmmmmmmmmmmmmmmmmmmmmmm",
"mmmmmmmmmmmmmmmmmmmmmmmmmmmmmmmmmmmmmmmmmmmmmmmmmmmmmmmmmmmmmmmm",
"mmmmmmmmmmmmmmmmmmmmmmmmmmmmmmmmmmmmmmmmmmmmmmmmmmmmmmmmmmmmmmmm",
"mmmmmmmmmmmmmmmmmmmmmmmmmmmmmmmmmmmmmmmmmmmmmmmmmmmmmmmmmmmmmmmm",
"mmmmmmmmmmmmmmmmmmmmmmmmmmmmmmmmmmmmmmmmmmmmmmmmmmmmmmmmmmmmmmmm",
"mmmmmmmmmmmmmmmmmmmmmmmmmmmmmmmmmmmmmmmmmmmmmmmmmmmmmmmmmmmmmmmm",
"mmmmmmmmmmmmmmmmmmmmmmmmmmmmmmmmmmmmmmmmmmmmmmmmmmmmmmmmmmmmmmmm",
"mmmmmmmmmmmmmmmmmmmmmmmmmmmmmmmmmmmmmmmmmmmmmmmmmmmmmmmmmmmmmmmm",
"mmmmmmmmmmmmmmmmmmmmmmmmmmmmmmmmmmmmmmmmmmmmmmmmmmmmmmmmmmmmmmmm",
"mmmmmmmmmmmmmmmmmmmmmmmmmmmmmmmmmmmmmmmmmmmmmmmmmmmmmmmmmmmmmmmm",
"mmmmmmmmmmmmmmmmmmmmmmmmmmmmmmmmmmmmmmmmmmmmmmmmmmmmmmmmmmmmmmmm",
"mmmmmmmmmmmmmmmmmmmmmmmmmmmmmmmmmmmmmmmmmmmmmmmmmmmmmmmmmmmmmmmm",
"mmmmmmmmmmmmmmmmmmmmmmmmmmmmmmmmmmmmmmmmmmmmmmmmmmmmmmmmmmmmmmmm",
"mmmmmmmmmmmmmmmmmmmmmmmmmmmmmmmmmmmmmmmmmmmmmmmmmmmmmmmmmmmmmmmm",
"mmmmmmmmmmmmmmmmmmmmmmmmmmmmmmmmmmmmmmmmmmmmmmmmmmmmmmmmmmmmmmmm",
"mmmmmmmmmmmmmmmmmmmmmmmmmmmmmmmmmmmmmmmmmmmmmmmmmmmmmmmmmmmmmmmm",
"mmmmmmmmmmmmmmmmmmmmmmmmmmmmmmmmmmmmmmmmmmmmmmmmmmmmmmmmmmmmmmmm",
"mmmmmmmmmmmmhmhmmmmumummmmmmmmmmmmmmmmmmmmgmzmmmmmmmmmmmmmmmmmmm",
"mmmmmmmmmmmmqhdmmmm,uummmmmmmmmmmmmmmmmmmmwgzmm0memmmmmmmmmmmmmm",
"mmmmmmmmmmmm#d:mmmm 9&mmmmmmmmmmmmmmmmmmmmwysmm3eemmmmmmmmmmmmmm",
"mmmmmmmmmmmm#%:mmmm Xo&&mmmmmmmmmmmmmmmmm:rs#mm33emmmmmmmmmmmmmm",
"mmmmmmmmmmmm@-%::mm. oo&&mmmmmmmmmmmmmmmm:%$#moo39mmmmmmmmmmmmmm",
"mmmmmmmmmmmm@@%%5588 .&o&&mmmmmmmmmmmmm::$#@@oooommmmbbhmmmmmmmm",
"mmmmmmmmmmmmm$$252588Xooo&mmmmmmmmmmmm:%$@@+ooooombnbbpqmmmmmmmm",
"mmmmmmmmmmmmm><222258XX8888a8aaa888a5%%#$+@ooooombnbvvjpmmmmmmmm",
"mmmmmmmmmmmm>><222225>;555888888885552<#+@2ookvvvbvvccjpmmmmmmmm",
"mmmmmmmmmmmm*><2222288;>2555855588522<>;O22;b55vvvcc:cjpmmmmmmmm",
"mmmmmmmmmmmm*>2222222252225555255822222<<>>;5bvcccc:o%jmmmmmmmmm",
"mmmmmmmmmmmm;<222222222222222522522222222>55vccccccc%cpmmmmmmmmm",
"mmmmmmmmmmmm>>22222222222222222222222222255222ccccccccjmmmmmmmmm",
"mmmmmmmmmmmm;>2222222222222222222222222222222ccccccccjpmmmmmmmmm",
"mmmmmmmmmmmm><222222222222222222222222222222ccccj1ccjpmmmmmmmmmm",
"mmmmmmmmmmmmm<22222222222222222222222222222222cp=+:jppmmmmmmmmmm",
"mmmmmmmmmxxx55<<2<2<<22<22<22222222<222222222227##-ppmmmmmmmmmmm",
"mmmmmmmxxhd<>>><>>>><<><<><><222<>><<<><<<><<<2;6$:77mmmmmmmmmmm",
"mmmmmmmxtqq4;>>;;;;;;;;>>>>;><>>2<2><<<<>>>>>>><;77mmmmmmmmmmmmm",
"mmmmmmxdtmmmmmmmmmmmmmm;;;;>;*;;;>;;><>>;>>mmmmmmmmmmmmmmmmmmmmm",
"mmmmmmtddmmmmmmmmmmmmmmmmmmmmmmmmmmmmmmmmmmmmmmmmmmmmmmmmmmmmmmm",
"mmmmmmmthxmmmmmmmmmmmmmmmmmmmmmmmmmmmmmmmmmmmmmmmmmmmmmmmmmmmmmm",
"mmmmmmmtttfxxmmmmmmmmmmmmmmmmmmmmmmmmmmmmmmmmmmmmmmmmmmmmmmmmmmm",
"mmmmmmmmqqqtffhxxxmmmmmmmmmmmmmmmmmmmmmmmmmmmmmmmmmmmmmmmmmmmmmm",
"mmmmmmmmmmqqqqqqttfffhxxxmmmmmmmmmmmmmmmmmmmmmmmmmmmmmmmmmmmmmmm",
"mmmmmmmmmmmmmmmmmqqqqqqqthmmmmmmmmmmmmmmmmmmmmmmmmmmmmmmmmmmmmmm",
"mmmmmmmmmmmmmmmmmmmmmmmmmqiflmmmmmmmmmmmmmmmmmmmmmmmmmmmmmmmmmmm",
"mmmmmmmmmmmmmmmmmmmmmmmmmmmmmmmmmmmmmmmmmmmmmmmmmmmmmmmmmmmmmmmm",
"mmmmmmmmmmmmmmmmmmmmmmmmmmmmmmmmmmmmmmmmmmmmmmmmmmmmmmmmmmmmmmmm",
"mmmmmmmmmmmmmmmmmmmmmmmmmmmmmmmmmmmmmmmmmmmmmmmmmmmmmmmmmmmmmmmm",
"mmmmmmmmmmmmmmmmmmmmmmmmmmmmmmmmmmmmmmmmmmmmmmmmmmmmmmmmmmmmmmmm",
"mmmmmmmmmmmmmmmmmmmmmmmmmmmmmmmmmmmmmmmmmmmmmmmmmmmmmmmmmmmmmmmm",
"mmmmmmmmmmmmmmmmmmmmmmmmmmmmmmmmmmmmmmmmmmmmmmmmmmmmmmmmmmmmmmmm",
"mmmmmmmmmmmmmmmmmmmmmmmmmmmmmmmmmmmmmmmmmmmmmmmmmmmmmmmmmmmmmmmm",
"mmmmmmmmmmmmmmmmmmmmmmmmmmmmmmmmmmmmmmmmmmmmmmmmmmmmmmmmmmmmmmmm",
"mmmmmmmmmmmmmmmmmmmmmmmmmmmmmmmmmmmmmmmmmmmmmmmmmmmmmmmmmmmmmmmm",
"mmmmmmmmmmmmmmmmmmmmmmmmmmmmmmmmmmmmmmmmmmmmmmmmmmmmmmmmmmmmmmmm",
"mmmmmmmmmmmmmmmmmmmmmmmmmmmmmmmmmmmmmmmmmmmmmmmmmmmmmmmmmmmmmmmm",
"mmmmmmmmmmmmmmmmmmmmmmmmmmmmmmmmmmmmmmmmmmmmmmmmmmmmmmmmmmmmmmmm"
};
