/* XPM */
static char *result[] = {
/* columns rows colors chars-per-pixel */
"64 64 30 1 ",
"  c #5A2423",
". c #703634",
"X c #7C3C3A",
"o c #70573B",
"O c #4D633D",
"+ c #7A4644",
"@ c #556D44",
"# c #576B48",
"$ c #5E784B",
"% c #607650",
"& c #874D4B",
"* c #835452",
"= c #915D5B",
"- c #8A7452",
"; c #9A6B69",
": c #A37876",
"> c #688453",
", c #738565",
"< c #758F62",
"1 c #7F9370",
"2 c #9A815C",
"3 c #819970",
"4 c #A48D6C",
"5 c #AD987A",
"6 c #8CA27C",
"7 c #A48482",
"8 c #AB8482",
"9 c #B28F8D",
"0 c #B89997",
"q c #96AA87",
/* pixels */
"5555554o5555555555555555555555555555555o555555555555555555555555",
"22224o2o5o422222222222222222222222224o2o5o4222222222222222222222",
"222224-o542222222222222222222222222224-o542222222222222222222222",
"222222-o522222222222222222222222222222-o522222222222222222222222",
"22222--o5-222222222222222222222222222--o5-2222222222222222222222",
"2222-o-o5o-2222222222222222222222222-o-o5o-222222222222222222222",
"-------o5-------------------q----------o4-----------------------",
"oooooooooooooooooooooqoooo66oooooooooooooooooooooooooooooooooooo",
"555555555555555555566>4o66<>555555565555555555555555554o55555555",
"2222222222222222223<>@2<>>>>2222666222222222222222224o2o5o422222",
"2222222222222222266>>@<<>>>$<3666>>2222222222222222224-o54222222",
"222222222222222226>>>@>>>>$>>>>>>$@2222222222222222222-o52222222",
"2222222222222233#%>>>O>>>>>>>>$$@@2222222222222222222--o5-222222",
"22222222222666>>>O>>>>>$$$8:98;;OO222222222222222222-o-o5o-22222",
"---------663>>>>>>>>$$OOO78:8 *=&----------------------o4-------",
"oooooooo6o>$@@@>>>$$$OO008:;=*=&&&oooooooooooooooooooooooooooooo",
"5555554o555555>>>:880000::;==&&&&&X5554o555555555555555555555555",
"22224o2o5o4266>=;;:::::;;===&;;&&XX24o2o5o4222222222222222222222",
"222224-o54223$==8:==8:====&&&; +XXXX24-o542222222222222222222222",
"222222-o5261O===; *=: *=&&&&&&+XX==X22-o522222222222222222222222",
"22222--o51,#O;;==+&&&+&&&&&X==XXX= .2--o5-2222222222222222222222",
"2222-o-o1o-2&= .;;&&&&&==XXX= .XXX.X-o-o5o-222222222222222222222",
"-------o4---&&.X= .XXXX= .XXX.XXXXXX---o4-----------------------",
"oooooooooooooXXXX.XXXXXX.XXXXXXXXXXXoooooooooooooooooooooooooooo",
"5555555555555XXXXXXXXXXXXXX==XXX==XX5555555555555555554o55555555",
"22222222222222XXXXXXXXXXXXX= .XX= .X22222222222222224o2o5o422222",
"222222222222222XXX==X==XXXXX.XXXX.XX222222222222222224-o54222222",
"2222222222222222XX= .= .X==XXXXX==XX222222222222222222-o52222222",
"2222222222222222XXX.XX.XX= .XXXX= .222222222222222222--o5-222222",
"22222222222222222XXXXXXXXX.X==XXX.X22222222222222222-o-o5o-22222",
"------------------XXXXXXXXXX= .XXX---------------------o4-------",
"oooooooooooooooooooXXXXX==XXX.XXXXoooooooooooooooooooooooooooooo",
"5555554o5555555555555XXX= .X==XXX555554o555555555555555555555555",
"22224o2o5o4222222222222XX.XX= .X22224o2o5o4222222222222222222222",
"222224-o54222222222222222XXXX.X2222224-o542222222222222222222222",
"222222-o522222222222222222222222222222-o522222222222222222222222",
"22222--o5-222222222222222222222222222--o5-2222222222222222222222",
"2222-o-o5o-2222222222222222222222222-o-o5o-222222222222222222222",
"-------o4------------------------------o4-----------------------",
"oooooooooooooooooooooooooooooooooooooooooooooooooooooooooooooooo",
"55555555555555555555554o5555555555555555555555555555554o55555555",
"222222222222222222224o2o5o422222222222222222222222224o2o5o422222",
"2222222222222222222224-o542222222222222222222222222224-o54222222",
"2222222222222222222222-o522222222222222222222222222222-o52222222",
"222222222222222222222--o5-222222222222222222222222222--o5-222222",
"22222222222222222222-o-o5o-2222222222222222222222222-o-o5o-22222",
"-----------------------o4------------------------------o4-------",
"oooooooooooooooooooooooooooooooooooooooooooooooooooooooooooooooo",
"5555554o5555555555555555555555555555554o555555555555555555555555",
"22224o2o5o422222222222222222222222224o2o5o4222222222222222222222",
"222224-o542222222222222222222222222224-o542222222222222222222222",
"222222-o522222222222222222222222222222-o522222222222222222222222",
"22222--o5-222222222222222222222222222--o5-2222222222222222222222",
"2222-o-o5o-2222222222222222222222222-o-o5o-222222222222222222222",
"-------o4------------------------------o4-----------------------",
"oooooooooooooooooooooooooooooooooooooooooooooooooooooooooooooooo",
"55555555555555555555554o5555555555555555555555555555554o55555555",
"222222222222222222224o2o5o422222222222222222222222224o2o5o422222",
"2222222222222222222224-o542222222222222222222222222224-o54222222",
"2222222222222222222222-o522222222222222222222222222222-o52222222",
"222222222222222222222--o5-222222222222222222222222222--o5-222222",
"22222222222222222222-o-o5o-2222222222222222222222222-o-o5o-22222",
"-----------------------o4------------------------------o4-------",
"oooooooooooooooooooooooooooooooooooooooooooooooooooooooooooooooo"
};
