/* XPM */
static char *_99987756fa04b30b16b5c7a3f4261e0pSTAAHvJutNpxgNM[] = {
/* columns rows colors chars-per-pixel */
"64 64 9 1 ",
"  c None",
". c #2A2A29",
"X c #3D3D3C",
"o c #214523",
"O c #335E35",
"+ c #4A4A46",
"@ c #565252",
"# c #6F6B6B",
"$ c #7F7A7A",
/* pixels */
"                                                                ",
"                            ......XXXX++###                     ",
"                            .+          .X++####                ",
"                         ooooooooooooOO       .#                ",
"                        X############OOOOOOOOOOO                ",
"                     XXXX...........###########oO               ",
"                  XXXX........................##oO              ",
"               XXXX............................#oO              ",
"              XX..............................##@oO             ",
"            XXX..............................##.@oOO            ",
"           X##..............................##$@@ooO            ",
"           ++###..........................##$$$ooooOO           ",
"           ++++#########.................#$$$@@oooooOO          ",
"           .++++++++++++#########......##$$$@##ooooooO          ",
"            ..++++++++++++++++++#######$$$$@###ooooooOO         ",
"              .......++++++++++++++++++$@@@####oooooooO         ",
"              XXXXXXX........+++++++++$@#######oooooooO         ",
"               XXXXXXXXXXXXXX........XX########oooooooOO        ",
"               XXXXXXXXXXXXXXXXXXXXXX##########ooooooooO        ",
"               XXXXXXXXXXXXXXXXXXXXXX##########ooooooooO        ",
"               XXXXXXXXXXXXXXXXXXXXXX##########ooooooooOO       ",
"               XXXXXXXXXXXXXXXXXXXXXX##########oooooooooO       ",
"               XXXXXXXXXXXXXXXXXXXXXX##########oooooooooOO      ",
"               XXXXXXXXXXXXXXXXXXXXXX##########ooooooooooO      ",
"               XXXXXXXXXXXXXXXXXXXXXX#########oooooooooooO      ",
"                XXXXXXXXXXXXXXXXXXXXX#########                  ",
"                XXXXXXXXXXXXXXXXXXXXX#########                  ",
"                XXXXXXXXXXXXXXXXXXXXX#########                  ",
"                XXXXXXXXXXXXXXXXXXXXX#########                  ",
"                XXXXXXXXXXXXXXXXXXXXX#########                  ",
"                XXXXXXXXXXXXXXXXXXXXX#########                  ",
"                XXXXXXXXXXXXXXXXXXXXX#########                  ",
"                XXXXXXXXXXXXXXXXXXXXX#########                  ",
"                XXXXXXXXXXXXXXXXXXXXX#########                  ",
"                XXXXXXXXXXXXXXXXXXXXX########                   ",
"                XXXXXXXXXXXXXXXXXXXXX########                   ",
"                XXXXXXXXXXXXXXXXXXXXX########                   ",
"                XXXXXXXXXXXXXXXXXXXXX########                   ",
"                XXXXXXXXXXXXXXXXXXXXX########                   ",
"                XXXXXXXXXXXXXXXXXXXXX########                   ",
"                XXXXXXXXXXXXXXXXXXXXX########                   ",
"                 XXXXXXXXXXXXXXXXXXXX########                   ",
"                 XXXXXXXXXXXXXXXXXXXX########                   ",
"                 XXXXXXXXXXXXXXXXXXXX########                   ",
"                 XXXXXXXXXXXXXXXXXXXX########                   ",
"                 XXXXXXXXXXXXXXXXXXXX########                   ",
"                 XXXXXXXXXXXXXXXXXXXX########                   ",
"                 XXXXXXXXXXXXXXXXXXXX########                   ",
"                 XXXXXXXXXXXXXXXXXXXX########                   ",
"                  XXXXXXXXXXXXXXXXXXX########                   ",
"                  XXXXXXXXXXXXXXXXXXX#######                    ",
"                  XXXXXXXXXXXXXXXXXXX#######                    ",
"                  XXXXXXXXXXXXXXXXXXX#######                    ",
"                  XXXXXXXXXXXXXXXXXXX#######                    ",
"                  XXXXXXXXXXXXXXXXXXX#######                    ",
"                  XXXXXXXXXXXXXXXXXXX#######                    ",
"                  XXXXXXXXXXXXXXXXXXX#######                    ",
"                  XXXXXXXXXXXXXXXXXXX#######                    ",
"                  XXXXXXXXXXXXXXXXXXX######                     ",
"                  XXXXXXXXXXXXXXXXXXX#####                      ",
"                  XXXXXXXXXXXXXXXXXXX####                       ",
"                     XXXXXXXXXXXXXXXX###                        ",
"                          XXXXXXXXXXX                           ",
"                                                                "
};
