/* XPM */
static char *_cc787b966b64510db2a052fc3887cde4m5U2bOC4UNLPH7z[] = {
/* columns rows colors chars-per-pixel */
"64 64 13 1 ",
"  c #2A2A29",
". c #3D3D3C",
"X c #214523",
"o c #335E35",
"O c #70573B",
"+ c #4A4A46",
"@ c #565252",
"# c #6F6B6B",
"$ c #7F7A7A",
"% c #8A7452",
"& c #9A815C",
"* c #A48D6C",
"= c #AD987A",
/* pixels */
"======*O===============================O========================",
"&&&&*O&O=O*&&&&&&&&&&&&&&&&&      ....++###&&&&&&&&&&&&&&&&&&&&&",
"&&&&&*%O=*&&&&&&&&&&&&&&&&&& +&&&&&&&*%O .++####&&&&&&&&&&&&&&&&",
"&&&&&&%O=&&&&&&&&&&&&&&&&XXXXXXXXXXXXooO=&&&&& #&&&&&&&&&&&&&&&&",
"&&&&&%%O=%&&&&&&&&&&&&&&.############ooooooooooo&&&&&&&&&&&&&&&&",
"&&&&%O%O=O%&&&&&&&&&&....           ###########Xo&&&&&&&&&&&&&&&",
"%%%%%%%O=%%%%%%%%%....                        ##Xo%%%%%%%%%%%%%%",
"OOOOOOOOOOOOOOO....                            #XoOOOOOOOOOOOOOO",
"==============..                              ##@Xo===*O========",
"&&&&&&&&&&&&...                              ## @Xoo*O&O=O*&&&&&",
"&&&&&&&&&&&.##                              ##$@@XXo&*%O=*&&&&&&",
"&&&&&&&&&&&++###                          ##$$$XXXXoo&%O=&&&&&&&",
"&&&&&&&&&&&++++#########                 #$$$@@XXXXXoo%O=%&&&&&&",
"&&&&&&&&&&& ++++++++++++#########      ##$$$@##XXXXXXo%O=O%&&&&&",
"%%%%%%%%%%%%  ++++++++++++++++++#######$$$$@###XXXXXXooO*%%%%%%%",
"OOOOOOOOOOOOOO       ++++++++++++++++++$@@@####XXXXXXXoOOOOOOOOO",
"======*O======.......        +++++++++$@#######XXXXXXXo=========",
"&&&&*O&O=O*&&&&..............        ..########XXXXXXXoo&&&&&&&&",
"&&&&&*%O=*&&&&&......................##########XXXXXXXXo&&&&&&&&",
"&&&&&&%O=&&&&&&......................##########XXXXXXXXo&&&&&&&&",
"&&&&&%%O=%&&&&&......................##########XXXXXXXXoo&&&&&&&",
"&&&&%O%O=O%&&&&......................##########XXXXXXXXXo&&&&&&&",
"%%%%%%%O*%%%%%%......................##########XXXXXXXXXoo%%%%%%",
"OOOOOOOOOOOOOOO......................##########XXXXXXXXXXoOOOOOO",
"===============......................#########XXXXXXXXXXXo======",
"&&&&&&&&&&&&&&&&.....................#########&&&&&&*O&O=O*&&&&&",
"&&&&&&&&&&&&&&&&.....................#########&&&&&&&*%O=*&&&&&&",
"&&&&&&&&&&&&&&&&.....................#########&&&&&&&&%O=&&&&&&&",
"&&&&&&&&&&&&&&&&.....................#########&&&&&&&%%O=%&&&&&&",
"&&&&&&&&&&&&&&&&.....................#########&&&&&&%O%O=O%&&&&&",
"%%%%%%%%%%%%%%%%.....................#########%%%%%%%%%O*%%%%%%%",
"OOOOOOOOOOOOOOOO.....................#########OOOOOOOOOOOOOOOOOO",
"======*O========.....................#########==================",
"&&&&*O&O=O*&&&&&.....................#########&&&&&&&&&&&&&&&&&&",
"&&&&&*%O=*&&&&&&.....................########&&&&&&&&&&&&&&&&&&&",
"&&&&&&%O=&&&&&&&.....................########&&&&&&&&&&&&&&&&&&&",
"&&&&&%%O=%&&&&&&.....................########&&&&&&&&&&&&&&&&&&&",
"&&&&%O%O=O%&&&&&.....................########&&&&&&&&&&&&&&&&&&&",
"%%%%%%%O*%%%%%%%.....................########%%%%%%%%%%%%%%%%%%%",
"OOOOOOOOOOOOOOOO.....................########OOOOOOOOOOOOOOOOOOO",
"================.....................########=========*O========",
"&&&&&&&&&&&&&&&&&....................########&&&&&&&*O&O=O*&&&&&",
"&&&&&&&&&&&&&&&&&....................########&&&&&&&&*%O=*&&&&&&",
"&&&&&&&&&&&&&&&&&....................########&&&&&&&&&%O=&&&&&&&",
"&&&&&&&&&&&&&&&&&....................########&&&&&&&&%%O=%&&&&&&",
"&&&&&&&&&&&&&&&&&....................########&&&&&&&%O%O=O%&&&&&",
"%%%%%%%%%%%%%%%%%....................########%%%%%%%%%%O*%%%%%%%",
"OOOOOOOOOOOOOOOOO....................########OOOOOOOOOOOOOOOOOOO",
"======*O=========....................########===================",
"&&&&*O&O=O*&&&&&&&...................########&&&&&&&&&&&&&&&&&&&",
"&&&&&*%O=*&&&&&&&&...................#######&&&&&&&&&&&&&&&&&&&&",
"&&&&&&%O=&&&&&&&&&...................#######&&&&&&&&&&&&&&&&&&&&",
"&&&&&%%O=%&&&&&&&&...................#######&&&&&&&&&&&&&&&&&&&&",
"&&&&%O%O=O%&&&&&&&...................#######&&&&&&&&&&&&&&&&&&&&",
"%%%%%%%O*%%%%%%%%%...................#######%%%%%%%%%%%%%%%%%%%%",
"OOOOOOOOOOOOOOOOOO...................#######OOOOOOOOOOOOOOOOOOOO",
"==================...................#######==========*O========",
"&&&&&&&&&&&&&&&&&&...................#######&&&&&&&&*O&O=O*&&&&&",
"&&&&&&&&&&&&&&&&&&...................######&&&&&&&&&&*%O=*&&&&&&",
"&&&&&&&&&&&&&&&&&&...................#####&&&&&&&&&&&&%O=&&&&&&&",
"&&&&&&&&&&&&&&&&&&...................####&&&&&&&&&&&&%%O=%&&&&&&",
"&&&&&&&&&&&&&&&&&&&&%................###&&&&&&&&&&&&%O%O=O%&&&&&",
"%%%%%%%%%%%%%%%%%%%%%%%O*%...........%%%%%%%%%%%%%%%%%%O*%%%%%%%",
"OOOOOOOOOOOOOOOOOOOOOOOOOOOOOOOOOOOOOOOOOOOOOOOOOOOOOOOOOOOOOOOO"
};
