/* XPM */
static char *_94296ed810946e9fd98a24152796ba4nRRLTOsjggxLnS8i[] = {
/* columns rows colors chars-per-pixel */
"64 64 9 1 ",
"  c None",
". c #2A2A29",
"X c #3D3D3C",
"o c #214523",
"O c #335E35",
"+ c #4A4A46",
"@ c #565252",
"# c #6F6B6B",
"$ c #7F7A7A",
/* pixels */
"                                                                ",
"                            ......XXXX++###                     ",
"                            .+          .X++####                ",
"                       OOOOOOOOOOOOOOOO       .#                ",
"                    OOOOOOooOOooooooOOOOOOOOOOOO                ",
"                 OOOOOooooOOOOOOOOOOooooOOooOOOo                ",
"               OOOOooooOOOOOOOOOOOOOOOOOOoOOOOoO                ",
"             OOOooooOOOOOOOOOOOOOOOOOOoooOOOooOO#               ",
"             ooOOOOOoooooooooOOOOOOoooOOOOOoOOO@@               ",
"            XoooOOOOOOOOOOOOOooooooOOOOOoooOOO@@@               ",
"           XXXoooooooooOOOOOOOOOOOOOOOooOOOO##$@@               ",
"           ++XXooooooooooooooooOOOOOooOOOO##$$$                 ",
"           ++++XXXXXXXXXoooooooooooooOOOO#$$$@@                 ",
"           ..+++++++++++XXXXXXXXoooooOO##$$$@##                 ",
"            ..++++++++++++++++++XXXX+##$$$$@###                 ",
"              .......++++++++++++++++$$$@@@####                 ",
"              XXXXXXX........++++++++$$@#######                 ",
"               XXXXXXXXXXXXXX........@@########                 ",
"               XXXXXXXXXXXXXXXXXXXXXX##########                 ",
"               XXXXXXXXXXXXXXXXXXXXXX##########                 ",
"               XXXXXXXXXXXXXXXXXXXXXX##########                 ",
"               XXXXXXXXXXXXXXXXXXXXXX##########                 ",
"               XXXXXXXXXXXXXXXXXXXXXX##########                 ",
"               XXXXXXXXXXXXXXXXXXXXXX##########                 ",
"               XXXXXXXXXXXXXXXXXXXXXX#########                  ",
"                XXXXXXXXXXXXXXXXXXXXX#########                  ",
"                XXXXXXXXXXXXXXXXXXXXX#########                  ",
"                XXXXXXXXXXXXXXXXXXXXX#########                  ",
"                XXXXXXXXXXXXXXXXXXXXX#########                  ",
"                XXXXXXXXXXXXXXXXXXXXX#########                  ",
"                XXXXXXXXXXXXXXXXXXXXX#########                  ",
"                XXXXXXXXXXXXXXXXXXXXX#########                  ",
"                XXXXXXXXXXXXXXXXXXXXX#########                  ",
"                XXXXXXXXXXXXXXXXXXXXX#########                  ",
"                XXXXXXXXXXXXXXXXXXXXX########                   ",
"                XXXXXXXXXXXXXXXXXXXXX########                   ",
"                XXXXXXXXXXXXXXXXXXXXX########                   ",
"                XXXXXXXXXXXXXXXXXXXXX########                   ",
"                XXXXXXXXXXXXXXXXXXXXX########                   ",
"                XXXXXXXXXXXXXXXXXXXXX########                   ",
"                XXXXXXXXXXXXXXXXXXXXX########                   ",
"                 XXXXXXXXXXXXXXXXXXXX########                   ",
"                 XXXXXXXXXXXXXXXXXXXX########                   ",
"                 XXXXXXXXXXXXXXXXXXXX########                   ",
"                 XXXXXXXXXXXXXXXXXXXX########                   ",
"                 XXXXXXXXXXXXXXXXXXXX########                   ",
"                 XXXXXXXXXXXXXXXXXXXX########                   ",
"                 XXXXXXXXXXXXXXXXXXXX########                   ",
"                 XXXXXXXXXXXXXXXXXXXX########                   ",
"                  XXXXXXXXXXXXXXXXXXX########                   ",
"                  XXXXXXXXXXXXXXXXXXX#######                    ",
"                  XXXXXXXXXXXXXXXXXXX#######                    ",
"                  XXXXXXXXXXXXXXXXXXX#######                    ",
"                  XXXXXXXXXXXXXXXXXXX#######                    ",
"                  XXXXXXXXXXXXXXXXXXX#######                    ",
"                  XXXXXXXXXXXXXXXXXXX#######                    ",
"                  XXXXXXXXXXXXXXXXXXX#######                    ",
"                  XXXXXXXXXXXXXXXXXXX#######                    ",
"                  XXXXXXXXXXXXXXXXXXX######                     ",
"                  XXXXXXXXXXXXXXXXXXX#####                      ",
"                  XXXXXXXXXXXXXXXXXXX####                       ",
"                     XXXXXXXXXXXXXXXX###                        ",
"                          XXXXXXXXXXX                           ",
"                                                                "
};
